<svg xmlns="http://www.w3.org/2000/svg" width="265.03" height="160.031" viewBox="0 0 265.03 160.031">
  <defs>
    <style>
      .cls-1 {
        fill: #fff;
        fill-rule: evenodd;
      }
    </style>
  </defs>
  <path id="Cloudy" class="cls-1" d="M2879.53,479.019a48.791,48.791,0,0,1-10.76-96.342,32.815,32.815,0,0,1-.54-5.964,33.23,33.23,0,0,1,50.2-28.514,73.99,73.99,0,0,1,131.99,33.367,48.78,48.78,0,0,1-2.83,97.449Zm21.91-121.544a19.238,19.238,0,0,0-17.22,27.86,6.965,6.965,0,0,1-5.95,10.092,34.843,34.843,0,0,0,1.31,69.656l167.94,0a34.846,34.846,0,0,0-.42-69.69c-0.72,0-1.49.031-2.45,0.1a6.958,6.958,0,0,1-7.44-6.5A60.018,60.018,0,0,0,2926,361.848a6.979,6.979,0,0,1-10.91,1.3A19.13,19.13,0,0,0,2901.44,357.475Z" transform="translate(-2830.91 -319)"/>
</svg>
