<svg xmlns="http://www.w3.org/2000/svg" viewBox="0 0 1355.13 1591.18"><defs><style>.cls-1{fill:#74b4c8;}</style></defs><g id="Calque_2" data-name="Calque 2"><g id="Calque_1-2" data-name="Calque 1"><g id="Inspiraitons"><path class="cls-1" d="M220.6,1589.8c0,1.5,0,1.83.07.74,0-.54,0-1.44.1-2.72a44.92,44.92,0,0,1,.54-5l.54-2.91.76-2.87A41.62,41.62,0,0,0,220.6,1589.8Z"/><path class="cls-1" d="M249,1543.76c3.83-3,8.09-6.11,10.8-7.9s3.71-2.53,1-.87c-2,1.36-3.64,2.45-5,3.48s-2.67,1.9-3.89,2.85-2.49,1.88-3.9,3.06-3,2.54-5,4.28c-6.19,5.56-10.1,10.41-9.25,9.29l-2.08,2.6c-.85,1.14-1.84,2.48-2.79,3.91a50.8,50.8,0,0,0-4.42,8.15,63.67,63.67,0,0,1,9.87-15.12,112,112,0,0,1,15.07-14.18C251.88,1541.48,249.52,1543.28,249,1543.76Z"/><path class="cls-1" d="M1037.2,1370l-5.18.78Z"/><path class="cls-1" d="M1319.12,1042.69c.8,3.75,1.15,5.31,1.2,5.5C1319.57,1044.71,1319,1041.85,1319.12,1042.69Z"/><path class="cls-1" d="M1285,964.38c1,1.51,2,2.72,2.91,4.15C1286.91,966.89,1285.71,965.35,1285,964.38Z"/><path class="cls-1" d="M1037.2,1370l13.28-2C1051.4,1367.74,1043.67,1369,1037.2,1370Z"/><path class="cls-1" d="M349.39,1495.26l-6.89,2.39,6.48-2.23Z"/><path class="cls-1" d="M817.8,1402l-4,.59-3.35.55Z"/><path class="cls-1" d="M649.67,1428.14c3.79-.64,5.09-1,6.54-1.26-2.13.4-4.94.89-8.26,1.47A14.27,14.27,0,0,0,649.67,1428.14Z"/><path class="cls-1" d="M385.93,1484.31l-4.59,1.37Z"/><path class="cls-1" d="M938.35,1384.69c.29,0,.9-.09,1.54-.18l-.42,0Z"/><path class="cls-1" d="M384.09,81.12c.14,0,0,0,0,0C383.09,81.14,382.78,81.16,384.09,81.12Z"/><path class="cls-1" d="M220.89.8l.16,2.73a4,4,0,0,0,.09.58Z"/><path class="cls-1" d="M1155.21,881.46l.68.17C1159.92,882.59,1157.64,882,1155.21,881.46Z"/><path class="cls-1" d="M154.67,708.56c-3.93,1.06-4.3,1.15-3,.77l2.94-.85,4-1c5.44-1.36,9.89-2.48-2.07.37a17.58,17.58,0,0,1-2.14.57L149.08,710C145.89,710.94,144.87,711.26,154.67,708.56Z"/><path class="cls-1" d="M353.58,1493.88l6.64-2.16C357.19,1492.69,355.15,1493.35,353.58,1493.88Z"/><path class="cls-1" d="M156.55,707.85h0c-.82.2-1.65.38-2.47.6C155.1,708.18,155.68,708.07,156.55,707.85Z"/><path class="cls-1" d="M796,898.79l3.61-.75Z"/><path class="cls-1" d="M1063.57,870.42c-2.22-.14-4.44-.2-6.67-.27C1059.55,870.23,1061.7,870.31,1063.57,870.42Z"/><path class="cls-1" d="M660.11,932.85l-9.48,2.55,1.45-.38Z"/><path class="cls-1" d="M519.35,970.81l2.61-.65,4.47-1.17Z"/><path class="cls-1" d="M825.56,45.47l-6.73,0C821.08,45.53,799.67,46,825.56,45.47Z"/><path class="cls-1" d="M349.49,1495.29c.8-.29,2-.7,4.09-1.41l-4.6,1.54C348.58,1495.57,348.5,1495.61,349.49,1495.29Z"/><path class="cls-1" d="M654.62,935.25l-22.36,6.06Z"/><path class="cls-1" d="M1133.61,685.86l5.18-1.18Z"/><path class="cls-1" d="M565.94,959.39l-12.62,3.31-2.59.72Z"/><path class="cls-1" d="M818.78,45.49h0Z"/><path class="cls-1" d="M666.49,53.9c22-1.71,10.32-.94,15-1.39,26.27-2,12.17-.77,21.12-1.33,16.4-1.16,29-2.06,41.23-2.73.91,0,3.3-.15.51,0,8.67-.52,21.56-1.19,34.81-1.71s26.87-1,37-1.26l2.65,0c-3.28,0-3.79-.06-3.12-.13,9.89-.23,18.36-.44,22.08-.37-6.06.06-6.57.11-9.4.19L838.7,45c4.67,0,1.13.07-3.57.13l-7,.12-2.54.06-.73,0-.26,0C834.66,45.12,845.6,45,856,45s20.12,0,27.86.22a32.86,32.86,0,0,1-4,0l-10.34-.09c-6.88,0-11.58,0-1.24.06l-12-.07-12,0c9.16.08,5.52.09,1.69.1s-7.83.06.58.11c15.77-.08,24.58,0,33.39.12s17.6.26,33.32.92c7.08.22-2.34-.23,4.74,0,5.59.24,10.32.46,14.4.72s7.49.44,10.44.67c5.89.41,9.9.79,13.55,1.13s6.91.68,11.32,1.1c2.2.21,4.69.46,7.64.78s6.39.65,10.46,1.14c4.23.46,7.17.75,11.94,1.38,2.39.3,5.24.67,8.92,1.25l6.22,1,7.77,1.36-7.89-1.2,9.44,1.61,6.41,1.2c3.5.63,5.68,1.1,7.9,1.54s4.5.87,8.14,1.74,8.68,2,16.38,4.17c-1.36-.39-3.5-.93-5.87-1.53s-5-1.29-7.25-1.8c-4.59-1.07-7.92-1.84-5.68-1.31,10.08,2.36,13.59,3.39,16.58,4.09l4.73,1.28c1.92.52,4.44,1.22,8.22,2.44l3.1,1.12c31,9.81,62.71,27.58,90.4,50.53-1.56-1.24-6.33-5.14.12.26,4.43,3.54,8.68,7.45,13,11.33,2.16,2,4.23,4,6.36,6.08l3.19,3.07,3.09,3.2a343.25,343.25,0,0,1,23.71,27l5.53,7.09,5.27,7.24c.87,1.2,1.77,2.38,2.61,3.61l2.49,3.67c1.64,2.45,3.35,4.84,4.92,7.31,3.13,4.94,6.27,9.78,9.11,14.71s5.61,9.78,8.26,14.56l1,1.82,1,1.85,1.94,3.7c1.28,2.48,2.65,4.9,3.84,7.42,1.69,3.51,3.08,6.53,1.24,2.74,1.84,3.85,2.79,5.82,3.23,6.73s.36.76.19.35c-.36-.81-1.14-2.65.59,1.07,4,8.86,5.16,11.74,2.62,6.13a444.2,444.2,0,0,1,20.11,54.49q1.14,3.9,2.26,7.79c.75,2.59,1.37,5.21,2.06,7.79,1.4,5.16,2.53,10.29,3.67,15.23.59,2.47,1,4.92,1.53,7.31s.94,4.71,1.39,7l2.18,12.73-1.09-6.09c1.1,6.08,1.73,10.87,2.34,14.95s1,7.49,1.42,10.84c.2,1.67.4,3.33.61,5.06s.32,3.53.49,5.47.35,4,.55,6.36.27,4.87.42,7.73l-.27-4.38a378.38,378.38,0,0,1-3.39,81.39,298.33,298.33,0,0,1-8.26,37.42c-.84,2.92-1.64,5.8-2.61,8.57s-1.8,5.52-2.76,8.17-2,5.21-2.94,7.72l-.72,1.87c-.27.61-.53,1.22-.79,1.82-.52,1.21-1,2.4-1.54,3.57l-1.73,4.17c-.82,1.81-1.88,4-3,6.41-.59,1.21-1.2,2.49-1.84,3.81l-2.15,4c-1.47,2.72-2.94,5.58-4.64,8.26l-2.44,4-1.19,2c-.4.64-.83,1.26-1.24,1.88l-4.53,6.77c-2.86,3.91-4.93,6.69-5.39,7.42-4.78,6-8.14,9.93-11,12.91l-3.85,4.11-3.71,3.57-4.13,4c-1.62,1.39-3.44,2.95-5.6,4.82s-4.79,3.87-7.9,6.28l-2.44,1.87c-.84.65-1.79,1.24-2.73,1.9l-6.19,4.22c-2.43,1.52-4.59,2.79-6.6,4l-3,1.82-3,1.63-6.53,3.51c-2.44,1.17-5.19,2.42-8.42,3.91l-.37,0c-1.44.71-2.94,1.28-4.44,1.88l-4.48,1.78-2.24.89-1.13.44-1.14.39-4.58,1.53-4.9,1.52c-1.65.47-3.32.85-5,1.28l-6.43,1.74c-2.16.54-4.34,1-6.5,1.5,2.59-.6,5.37-1.13,7.35-1.67s3.25-.83,2.86-.71l-3.86,1c-1.33.33-2.69.62-4.06.93l-8.37,1.88-8.37,1.64-4,.79-3.87.66c-5,.85-9.39,1.63-12.57,2.06l-5.26.75c-16.25,2.47-32.6,4.39-49,6l15.8-1.68c-13.1,1.38-14.29,1.49-15.21,1.52s-1.57.07-13.59,1.17c3.23-.25-1.73.23-2.28.28l-11.53.8c-4.56.33-9.74.6-15.17.95s-11.13.58-16.73.88l-16.18.7,3.89-.25c-18.29.72-37.59,1.21-57.44,1.48s-40.28.26-60.83.09c14.74.16,11.36.28-.7.19l-4.81-.17c-7.79,0,12.58.16-3.39.12-15.35-.21-10.32-.28-1.51-.2l-18.66-.21c-1.09-.06,3.28,0,4.42,0-7.66,0-32.21-.7-43.26-.83l-1.05-.07c-41.07-1-59.69-1.64-93.14-2.81-.66.08-13.74-.41-23.71-.7L593.09,696c-20.81-.75-6.08-.14-15.44-.44-1.53-.16-31.11-1.26-15.76-.76-35.55-1.28-45.4-1.69-90.38-2.92,4.88.17,10.37.36,7.53.31-8.16-.22-18.57-.55-17.4-.57l2.16,0c-25.25-.59-54.38-1.26-82.23-1.46s-54.43,0-74.53.7l2.25-.06c-13.89.45-27.79,1-41.67,1.83l-6.5.36,1-.08,2.32-.15c3.49-.22,7.61-.48.52-.12-22.46,1.4-40.16,3.08-56.82,5.16a426.69,426.69,0,0,0-50.29,9.06c-3.51.75-7.62,2-12.28,3.23-4.61,1.44-9.75,3-15.11,5.14a157.68,157.68,0,0,0-16.67,7.49,154.83,154.83,0,0,0-32.68,22.65,162.56,162.56,0,0,0-13.73,14.13A168.94,168.94,0,0,0,56.27,774.1L54,777.69l-1.11,1.74-1,1.76-2,3.38-1.78,3.3,1.12-2a165.37,165.37,0,0,0-8.31,17.66l.77-1.89,1.21-2.76c.74-1.66,1.1-2.48-.12.39a162.08,162.08,0,0,0-13,62.86,156.4,156.4,0,0,0,13.29,64,142.93,142.93,0,0,0,7.59,14.71c1.35,2.41,2.9,4.7,4.39,7,.75,1.16,1.58,2.26,2.37,3.4s1.58,2.27,2.45,3.35a141.34,141.34,0,0,0,22.89,23.87c1.07.87,2.12,1.77,3.21,2.61l3.31,2.48,1.66,1.24L92.64,986l3.41,2.33c1.16.75,2.34,1.45,3.51,2.18s2.32,1.48,3.54,2.12c2.41,1.32,4.78,2.74,7.26,3.91a168.32,168.32,0,0,0,30.57,11.83c1.92.55,3.69,1,5.3,1.37s3.06.78,4.42,1c2.7.54,4.88,1,6.76,1.34l4.89.77c1.43.22,2.74.42,4.13.56,2.76.29,5.77.73,10.6,1.12l8.78.83,12.67.92-11.37-.65a652.32,652.32,0,0,0,97.44-.29,937.71,937.71,0,0,0,95.62-12.51c-3.68.67-3.78.73-9.82,1.78l13.07-2.24c5.14-1,10.77-2,16-3L413,996.69l4.19-.91,1.17-.25.43-.11c9.57-2,2.23-.39,8.14-1.59,13-2.72,32.56-7.38,39.45-9,1.17-.26-3.63.89-6,1.45,8.46-1.92,39.25-9.51,31.17-7.63,22.88-5.63,43.65-11.21,61.82-16,11.81-3.28,38.95-10.47,42.66-11.67-1.58.63,39.87-10.76,54.23-14.73-4.8,1.36,12.52-3.32,6.9-1.72,16.41-4.45,31.46-8.45,28.57-7.78C716,919,746.6,911,763.82,907.19c49.09-11.76,95-20.91,139.92-27.3-.4.1-3.71.6-8.41,1.29s-10.78,1.69-16.76,2.61l-16.06,2.73c-4.23.77-6.85,1.28-6.37,1.23,21.2-3.84,38-6.46,54.75-8.78s33.57-4.23,54.86-5.92c11-.88-6.25.59-10,.94a801.75,801.75,0,0,1,121.34-2.15l-8.13-.39c7.55.29,17.51,1.19,16.67,1l-7.34-.52c-6-.5,1.47,0,10.62.6s19.93,1.76,20.6,1.87c-6.37-.65,3,.49,11.46,1.53,8.42,1.26,15.89,2.47,5.82,1.06l7.24,1.07a25.08,25.08,0,0,0,2.7.39c7.23,1.44,9.52,1.92,2.18.54l8.39,1.63,1.67.32,1.5.36,2.63.63,7.2,1.69c1,.22,1.94.48,3,.79l3.67,1.05c2.84.83,6.71,1.82,12.47,3.88a7.77,7.77,0,0,1-.82-.25l-1.9-.62c-1.48-.5-3.25-1.09-4.48-1.39,1.5.39,3,.91,4.44,1.4l4.52,1.51c1.53.52,3.11,1,4.7,1.6l4.9,1.91,5.25,2.06c1.81.74,3.65,1.62,5.6,2.49s4,1.77,6.1,2.78l6.57,3.39a47.87,47.87,0,0,1-4.49-2.25,213.43,213.43,0,0,1,40.61,26.22l2.27,1.84c.76.62,1.46,1.3,2.2,2l4.41,4c1.51,1.3,2.89,2.78,4.34,4.21l4.37,4.4,4.25,4.76,2.18,2.44c.72.83,1.4,1.71,2.1,2.58l4.3,5.35,4.18,5.79c-3.43-4.6-1.5-1.91,1.42,2.15,2.74,4.19,6.4,9.81,6.76,10.79l2.64,4.52c.43.76.9,1.5,1.3,2.27l1.2,2.32c1.6,3.1,3.28,6.17,4.67,9.37-.58-1.27-1.12-2.57-1.74-3.82l-1.89-3.75a212.37,212.37,0,0,1,17.67,47c-.59-2.2-1.14-4.4-1.75-6.59l-2-6.52c.81,2.75,1.73,5.47,2.45,8.24l2.15,8.33,1.8,8.4c.58,2.81,1,5.65,1.51,8.47q-1.51-9.62-3.81-19.09c.62,2.24.94,3.92,1.23,5.15s.46,2,.57,2.55a6.45,6.45,0,0,0,.29,1.08c0,.11.12.4.5,2.16s.91,5,1.91,11c-.34-2.46.27,2.09,1.09,8.45.36,3.18.65,6.83,1,10.27s.36,6.7.48,9.09v-.06a273,273,0,0,1-.38,32c-.33,3.52.05-2.84-.15-.55s-.44,6-.86,10.64c-.27,2.3-.56,4.8-.87,7.41q-.21,2-.54,4c-.2,1.34-.41,2.7-.61,4.07-1.69,10.92-4.1,22-5.5,27.52.89-3.68.87-3.89.55-2.69l-1.75,7.32c-2.32,8.18-2.72,9.36-2.39,8-.85,3.08-1.62,5.22-2.08,6.74s-.75,2.37-.89,2.8c-.26.88,0,.06.26-.62s.43-1.21,0,.23c-.25.72-.59,2-1.28,3.86s-1.64,4.54-2.92,8.11c.78-2.25.41-1.17,2-5.86-10.24,28.71-23.59,54.2-40.57,76.51-1.28,1.62-1,1.21.06-.19.53-.71,1.25-1.66,2.07-2.73l2.5-3.55c.86-1.22,1.72-2.43,2.47-3.51s1.35-2,1.79-2.71c.88-1.36,1-1.59-.31.37a256.07,256.07,0,0,1-18.54,24.45,207.43,207.43,0,0,1-22,22,176.93,176.93,0,0,1-25,18,143.48,143.48,0,0,1-27.18,12.51l3.43-1.21c1.15-.39,2.29-.79,3.4-1.29a126.25,126.25,0,0,1-18.09,5.93c-8.81,2.19-19.43,4.51-29.11,6.55,4.74-1,6.19-1.42,4.91-1.12-26.22,5.47-53.77,10.42-93.86,16.86l5-.84c-15.59,2.45-41.09,6.36-58,8.83-5,.79-14.65,2.2-8.78,1.42-52.08,7.34-99.28,14.45-145.5,20.87,5.52-.79,13.16-1.94,8.76-1.31l-39.33,5.76c3.13-.36,5.17-.7,13.44-1.83l-25.81,3.87c17.68-2.66-.18-.13-7.82.95,1.28-.16-1.33.26-.68.19-20.56,2.89-3.42.68-31.47,4.77l1.48-.27-31.46,4.88c-4.7.61,11.16-1.77,11.87-2L699,1419.68l23.17-3.71c-15.67,2.32-17.48,2.65-29.1,4.48l1.14-.18-26.87,4.3,6.85-1.09c-19.8,3.53-40.4,6.74-67,11.66,25.9-4.75,4.27-.86,6.23-1.33-6.82,1.16-17.17,3-14.23,2.43-12.58,2.37-21,3.72-38.78,7.25-.8.1-13.45,2.59-10.63,2-16.34,3.22,3.88-.69,2.51-.37-25.16,5-59.2,11.61-95.09,20.26-15.48,3.7-24.61,6.07-33.45,8.4s-17.4,4.62-31.59,8.7c-4.8,1.34-2.85.74.3-.19l7.52-2.16c-15.51,4.27-27.11,7.72-41.52,12.42,2.91-1-.12,0-4.52,1.37-5.77,1.91-7.67,2.62-10.05,3.46l-12.75,4.57c2.57-1,5.87-2.26,11.39-4.25-13.53,4.76-26.75,9.85-40.34,15.82-3.64,1.5,8.17-3.67,13-5.63-7.74,3.11-17.66,7.42-26.08,11.53s-15.34,8-17.55,9.3l4.68-2.58,4.74-2.49c-5.36,2.86-2.82,1.36,1.16-.72,12.72-6.54,18.66-8.76,19.39-9.1-3.22,1.42-6.42,2.9-9.61,4.39,5-2.21,14.62-6.61,25.69-11s23.48-9,33.58-12.29c-2.79,1-5.56,2-8.34,3,6.85-2.44,13.75-4.74,20.66-7,4.45-1.34,7.5-2.23-2.51,1l13.47-4.19c3-.92,5.68-1.74,12-3.54,1.39-.39.76-.2-.52.18q7.15-2.1,14.32-4.12c-2.8.82,2.42-.55-6.4,1.89,25.76-7.15,41.64-11.19,51.44-13.48l-2.17.54,16.18-3.92a18.07,18.07,0,0,0,2.46-.63c-.26,0-1.67.27,11.88-2.9q9.17-1.93,18.35-3.77l3.54-.9c3.74-.8,11.15-2.36,9.79-2,13.93-3-2.39.45,5.69-1.33l32.18-6.49c10.71-2.1,19.68-3.8,21.74-4.09,6.48-1.33-17.32,3.22,2-.52,5.55-.85,22.34-4.23,38.93-7.08-5.07,1-20.77,3.79-4.18.9,10-2,32.28-5.66,46.28-8,.16-.07,2.14-.43,5.39-1l13-2.18,35.56-5.78,24.33-3.75,41.9-6.33-.65.12c4.22-.79,26.84-4.14,43.3-6.57-.63.18-3.59.64-12.5,2l15.48-2.28c3.64-.58,8.47-1.31,18.51-2.78l-3.88.67c20.61-3,41.49-6.12,68-9.85,1.48-.31-21.14,2.74,6.9-1.34,1-.1,2.1-.15-5.23.92l13.41-1.94-11.19,1.7c12.08-1.69,6.3-1,16-2.36-.18.11,7.16-1,5.78-.71l-12.12,1.74c10.89-1.55,24.06-3.39,28.42-4-1,.1,0-.1,8-1.26,20.62-3,7.07-.92,19.1-2.62l11-1.63c4-.59,7.32-1.1,7.49-1.18,6-.89,7.15-1,9.48-1.31,10.67-1.59,49.79-7.51,37.76-5.81l-2.73.41,1.74-.27h0c34.89-5.49,72.52-11.31,106.89-18.25l0,0c10.25-2.09,21.64-4.54,32.21-7.18,2.66-.62,5.22-1.41,7.72-2.13,1.25-.38,2.5-.68,3.68-1.1l3.49-1.25,3.34-1.19c1.08-.4,2.1-.87,3.1-1.29,2-.86,3.89-1.62,5.58-2.41l4.37-2.13c1.45-.71,2.86-1.35,4-2,2.23-1.22,3.51-1.9,2.36-1.23,1.74-1,3.33-1.81,4.69-2.7l3.79-2.4c2.38-1.45,4.36-2.89,6.54-4.44,1.09-.77,2.24-1.55,3.46-2.46l3.94-3.06,2.29-1.79c.81-.63,1.61-1.36,2.49-2.09l2.77-2.37c1-.83,2-1.71,3.07-2.72-1.44,1.41-2.56,2.3-3.3,3l-1.38,1.21c-.44.39-.05.06.2-.15l-.66.56-2.46,2.11c-1.19,1-2.85,2.24-5,3.94a197.08,197.08,0,0,0,17.68-15.25c1.17-1.15,2.32-2.35,3.53-3.58s2.51-2.51,3.8-4,2.7-3,4.24-4.74c.78-.85,1.56-1.78,2.35-2.76l2.53-3.09c-1.19,1.48-1.15,1.48-.33.51s2.46-2.86,4.29-5.31,4.08-5.25,6-8.1l2.88-4.08c.89-1.29,1.65-2.52,2.33-3.55l-2,3-2.12,3c-1.43,2-2.78,4-4.28,5.9a283.1,283.1,0,0,0,16.85-25.67c-.83,1.58-1.75,3.1-2.62,4.66a263.45,263.45,0,0,0,14.32-26.89c.51-1.1,1-2.18,1.52-3.28s1-2.2,1.42-3.29c.92-2.19,1.9-4.33,2.74-6.5,1.7-4.33,3.4-8.57,4.84-12.81a329.48,329.48,0,0,0,13.17-49c1-5.54-.09.14-1.19,6-1.29,5.78-2.61,11.72-1.59,6.79,2.27-9.53,3.86-19.41,5.08-27.63.26-2.07.5-4,.73-5.85s.45-3.52.57-5.06c.27-3.07.48-5.48.62-7,.42-6.7.68-11.61.68-15.66,0-2,0-3.82,0-5.52s-.09-3.29-.13-4.9-.09-3.21-.13-4.95-.22-3.59-.35-5.69-.22-4.43-.51-7.11c-.13-1.34-.26-2.76-.4-4.29s-.28-3.16-.53-4.9c.23,1.78.34,3.52.17,2.21-.1-.66-.3-2.07-.66-4.62-.18-1.28-.39-2.84-.65-4.73s-.71-4.08-1.14-6.67c-1.71-9.64-3.17-15.49-3.64-17.46-.22-1-.2-1,.07,0,.14.49.34,1.23.6,2.21.14.5.28,1.06.45,1.68s.29,1.32.45,2.07c1,4.6,1.45,6.82,1.39,6.63,1.18,6.22,2.54,14.42,1.3,6.76l-.48-2.5c-.22-1.2-.4-2.68-.77-4.29l-1.11-5.27c-.71-3.73-1.85-7.66-2.7-11.14-.41-1.75-.93-3.33-1.34-4.71s-.76-2.55-1-3.41c-.51-1.72-.64-2.2-.16-.69l-.74-2.4c-.25-.71-.47-1.33-.67-1.88-.39-1.1-.67-1.89-.86-2.41-.38-1-.39-1-.12-.26l1.49,4.3c.61,2,1.36,4.49,2.15,7.12L1314,1023c-.42-1.43-.84-2.82-1.34-4.15-.94-2.69-1.84-5.25-2.72-7.73s-1.93-4.81-2.87-7.14c-.24-.59-.47-1.17-.71-1.75l-.77-1.69-1.55-3.39a199.2,199.2,0,0,0-16.07-28.63c2.22,3.46,4.24,6.68,2,3.24l-1.84-2.85-.86-1.32c-.29-.41-.59-.81-.87-1.21l-3.05-4.23c-1.78-2.55-3.31-4.38-4.49-5.84-2.37-2.9-3.4-4.27-4.31-5.23l-3-3.31-3-3.34c-1.36-1.4-3.13-3.14-5.39-5.43-2.53-2.64-3.7-3.58-4.12-4s-.19-.23-.22-.27-.32-.32-1.81-1.67l-3.24-2.94c-1.5-1.27-3.48-2.84-6-4.88-3-2.56-4.86-3.75-5.6-4.35s-.54-.43.25.13,2.16,1.48,3.57,2.6l4.16,3.35c-4.51-3.81-9.2-7.07-13.61-10.29-4.58-2.95-8.84-5.94-13.12-8.3-2.11-1.22-4.13-2.46-6.12-3.55s-4-2.05-5.82-3c-3.68-2-7.19-3.5-10.26-4.91l5.68,2.55c1.89.86,3.7,1.86,5.56,2.79l-4.77-2.44-4.54-2c-2.95-1.3-5.71-2.67-8.62-3.75,2.21.86,4.34,1.88,6.49,2.89-1.67-.74-3.25-1.52-4.74-2.11l-4-1.58-2.68-1.07a8.75,8.75,0,0,1-.92-.39c-3.51-1.35-2.19-.78-1.72-.56s.1,0-7-2.3l-3.85-1.33-2.18-.73-2.32-.68-9.69-2.8-13.7-3.34c14.88,3.54,14.06,3.36,12.68,3-.69-.19-1.53-.41-.62-.21s3.55.92,9.78,2.72l-8-2.31-9.79-2.39c-1.07-.27,1,.22,3,.68-7.09-1.85-11.55-2.53-14.59-3.16s-4.73-.94-6.47-1.15l-6.71-.95-6.06-.88-9.32-1.11c3.83.39-7-1-11.9-1.39,12.17,1.17,5.81.67-5.35-.35l-3.43-.33-3.06-.23-5.13-.38-7.45-.52-12.17-.59,11.61.62c-3.94-.11-13.64-.75-27.18-1-1.16-.09,12.29.33,7.46.16-3.76-.06-7.76-.23-12-.28l-13.27-.15-14.38.11c-5,.11-10.08.29-15.32.46-9.71.39-.94-.1-9.47.28-2.93.16-5.53.27-7.88.43l-6.38.42c-3.86.27-7.08.42-10.32.7l-10.55.85c-4,.32-8.74.85-14.89,1.46,3.55-.31,5.63-.49,4.67-.38s-5,.46-13.63,1.54c6.72-.84,13.47-1.45,20.2-2.15,3.37-.33,6.74-.58,10.11-.88s6.75-.6,10.13-.8c-4.34.27-8.66.73-13,1.09l-6.49.59-6.48.68c12.19-1.26,25.76-2.3,33.09-2.74-12.38.9-11.11.79-5.25.48-16.74,1-33.14,2.79-52.39,5l.56-.31c-7.23.93-14.06,1.73-20.8,2.75l-10.1,1.48-10.24,1.64c-13.85,2.27-28.75,4.85-47.32,8.48L846,888.71c-2.48.53-8.22,1.64-14.84,2.91s-14.1,2.8-20.08,4.12c1.1-.31-6.4,1.25-11.53,2.3.32,0-6.44,1.46-13.7,3.08s-15,3.47-16.63,3.94l-16.46,3.82c-14.85,3.58-23.29,5.78-31.58,7.94l-30.64,8c8.53-2.33-4.4,1,14.63-4l-12.59,3.28-4,1.07c-1,.27-1.52.42-1.56.45-5.56,1.39-26.25,7.1-35,9.39-4,1.11-5.26,1.55-15.89,4.43-1.16.3,0-.05,0-.05l-7.16,2c-3,.83-4.8,1.36-.15.13-14.61,3.85-35,9.45-54.85,14.85S534.72,967,522,970.16c-20.7,5.42-45.71,11.67-64.64,16.05,1.21-.31.05-.05,3.63-.89-13.05,3-17.07,3.94-21.52,5s-9.37,2.23-24.31,5.27c-15.28,3,15.84-3.37,6.32-1.44-1.05.15-3.82.7-7.71,1.5l-14.41,2.88c-5.51,1.08-11.53,2.2-17.44,3.29s-11.7,2.08-16.77,2.84c1.63-.27,3.27-.53,4.89-.83-15.47,2.5-37.76,6.23-63.26,8.78,0,0,1.24-.15.15-.06-4.36.47-9.68,1.07-15.62,1.55-3,.24-6.09.54-9.31.77l-9.94.66c-3.38.26-6.83.36-10.28.53s-6.91.34-10.33.4l-10.11.26-9.6,0c7.67-.12,11.2-.08,6.52-.17a41,41,0,0,0-5.28.1c-.57,0-2.51.21-13.54,0-1.79-.07-4.13-.09-6.66-.21l-7.82-.38c-5.13-.21-9.62-.63-10.67-.74l5.19.35c1.73.11,3.46.16,5.19.24,3.46.14,6.92.33,10.39.43-10.64-.51-26.9-1.19-37.79-2.45l1.4.07-5.6-.52-4.94-.61c-3.11-.34-5.83-.83-8.32-1.24s-4.74-.85-6.88-1.29l-3.14-.64c-1-.21-2-.49-3.05-.73-4.08-1-8.18-2.1-13.28-3.73-2.52-.89-5.35-1.75-8.45-3-1.55-.63-3.23-1.21-5-2l-5.51-2.46,3.21,1.49-3-1.3-2.53-1.24c-1.56-.78-2.91-1.42-4.07-2l-5.72-3.21L96.84,988c-2.16-1.51-5-3.25-8.7-6.08-.73-.59-1.48-1.16-2.2-1.76l-2.14-1.85a144.91,144.91,0,0,1-20.52-20.42,157.42,157.42,0,0,1-10.75-15.09,159.93,159.93,0,0,1-8.41-15.7,147.33,147.33,0,0,0,13,22.41A143.86,143.86,0,0,0,75.67,971l-3.78-3.72-4.38-4.72c-1.47-1.75-3.07-3.53-4.58-5.43s-3-3.81-4.41-5.81a157.72,157.72,0,0,1-11.41-18.5c1.18,2.16,2.43,4.65,3.89,7,.72,1.19,1.39,2.4,2.12,3.53l2.09,3.25a141.37,141.37,0,0,1-12.45-22.84,149.3,149.3,0,0,1-5.45-14.69,166,166,0,0,1-4.21-16.89c.29,1-.37-2.33-1.17-8.31A158.15,158.15,0,0,1,30.58,860a162.64,162.64,0,0,1,2.93-27.9,150.52,150.52,0,0,1,5.36-20,153.6,153.6,0,0,1,13.21-29.41A155.71,155.71,0,0,1,61,769c1.68-2.16,3.27-4.4,5.07-6.48.88-1.06,1.77-2.12,2.65-3.19l2.79-3.08,1.4-1.55,1.47-1.49,2.95-3,3.09-2.89L82,745.89c.53-.47,1.08-.92,1.61-1.39l3.25-2.78c1.11-.91,2.26-1.78,3.39-2.68,2.23-1.82,4.64-3.44,7-5.16a159.06,159.06,0,0,1,15.23-9.27c2.63-1.48,5.4-2.76,8.17-4.11,1.37-.69,2.82-1.24,4.23-1.88s2.84-1.29,4.32-1.81c-4.15,1.61-5.33,2.18-4.9,2L126,718c.9-.39,2-.91,3.34-1.38,2.58-1,5.57-2.15,7.77-2.91s3.59-1.22,2.84-1c5.53-1.89,9.47-2.87,12.07-3.63s4-1,4.46-1.16c11.47-2.9,23.12-5,34.81-6.83,4.16-.62,1.41-.17-2.24.41s-8.19,1.46-7.66,1.37l4.28-.78,3.46-.54,4.85-.75c2.45-.36,3.51-.53,4.31-.62,1.59-.18,2.11-.21,10.52-1.31-1.73.2.47-.17,4.94-.68l8.16-.94,10.28-1-10.25.95-10.23,1.11c4.45-.52,8.27-1,11.62-1.34l8.79-.85c5.12-.51,9-.73,12.88-1s7.77-.52,12.94-.87,11.64-.69,20.65-1.2l-11.4.69c9.25-.59,26.33-1.35,43.38-1.82s34.05-.64,43.14-.82c3.28,0,7.62.07-.54.12,44.31-.27,98.65.77,133.08,2l-3.37,0c8.27.22,14.4.32,24.74.71-.53,0-3.33,0,.5.08,4.37.12,22,.64,32.9,1.07l-9.36-.27,102.55,3.7a1.33,1.33,0,0,0,.36,0l1.1.07,4,.21,13.51.59,31.84,1.28h-.6c50.32,1.86,85.48,2.83,132.1,3.7,14.47.38,39,.79,65.68.85s55.62-.3,78.87-1c-7.11.2,1.16-.17,9.42-.45,5.46-.18,13-.53,19-.79s10.33-.54,9.47-.42l-3.88.2c8.22-.19,30.63-1.57,48.08-3.11l2.87-.45c22.83-1.84,52.7-5.36,79.6-10.73,6.74-1.27,13.26-2.8,19.49-4.21l9-2.42,2.17-.58c.71-.21,1.41-.45,2.1-.67l4.08-1.33c5.37-1.62,10.1-3.65,14.33-5.24l1.56-.61,1.46-.66,2.76-1.24,4.8-2.15c1.28-.54,2.51-1.27,3.8-1.94l3.94-2.09c1.32-.73,2.71-1.37,4-2.19l4-2.4,4-2.4c1.31-.81,2.54-1.72,3.78-2.56l3.65-2.51,1.77-1.22c.58-.4,1.11-.85,1.66-1.27l-.4.46a185.47,185.47,0,0,0,29-26.4c.52-.57,1.07-1.13,1.57-1.73s1-1.21,1.52-1.82l3.1-3.73c2.17-2.48,4.11-5.3,6.31-8.19s4.26-6.12,6.58-9.51c1.18-1.69,2.25-3.52,3.38-5.41l3.53-5.89-3.91,6.68,3.77-6.31c1.08-2,2-3.78,2.93-5.48s1.76-3.28,2.51-4.83,1.42-3,2.11-4.54,1.38-3,2.08-4.47l2-4.79c.71-1.68,1.45-3.45,2.25-5.37s1.53-4.05,2.39-6.36c.73-1.84,1.56-3.65,2.2-5.52A308.73,308.73,0,0,0,1304.11,493a361.91,361.91,0,0,0,3.77-55.62c0,.6.07,1.7,0,7.74,0-2.19,0-4.9,0-7.95,0-1.52,0-3.13-.06-4.8s-.09-3.4-.13-5.17-.06-3.59-.17-5.42-.21-3.67-.31-5.52-.2-3.69-.3-5.51-.31-3.6-.46-5.34c-1.14-13.95-2.85-24.82-2.5-21.65,0-.05-.07-.69-.22-1.8s-.37-2.7-.64-4.65c-.14-1-.29-2.05-.46-3.19s-.4-2.36-.62-3.65c-.44-2.56-.93-5.39-1.45-8.36-2.25-11.88-5.58-26-8.26-35.75l.89,3c-1.06-4.12-2-7.2-2.82-9.89s-1.46-5-2.25-7.5-1.67-5.17-2.8-8.65c-.54-1.74-1.2-3.67-2-5.85s-1.63-4.65-2.62-7.44-1.39-3.8-1.22-3.43.93,2.27,2.12,5.81c-1.49-4.45-2.74-7.46-3.65-9.9s-1.61-4.25-2.41-6.17-1.64-3.94-2.84-6.8c-.6-1.43-1.25-3.09-2.1-5l-3-6.73,3.51,7.71c-2-4.41-3.4-7.62-4.51-10.12s-2-4.22-2.73-5.74l-2.09-4.25c-.72-1.48-1.55-3.19-2.81-5.52-1.42-2.68-3.12-6.08-5-9.64s-4-7.29-6-10.76l-5.37-9.12c-1.47-2.47-2.6-4.2-3-4.82l-4.93-7.5-4.12-6-2.29-3.34-2.47-3.41c-.88-1.26,1.6,2.06,2.8,3.75a379.12,379.12,0,0,0-23.94-30.56l-5.26-5.83-2.57-2.84-2.65-2.75L1189,141.5c-1.84-1.85-3.78-3.69-5.76-5.63-.31-.35-1.33-1.37-2.65-2.65l6.72,6.48c1.1,1,2.13,2.1,3.12,3.15l2.94,3.05c3.88,3.91,7.1,7.64,9.82,10.65s4.73,5.51,6.07,7.07l1.6,1.93a.89.89,0,0,0-.13-.19l-.39-.49-1.34-1.64-3.37-4.11a20.15,20.15,0,0,1-1.44-1.7c.27.26,1.51,1.56,4.16,4.72-2.63-3.23-6-6.79-9.54-10.75-1.75-2-3.75-3.92-5.7-6s-3.95-4.15-6.1-6.14l-6.36-6.11c-2.15-2-4.38-3.92-6.51-5.85l-3.19-2.85-3.21-2.67-6.09-5.06c-.75-.62-1.52-1.19-2.09-1.66l1.67,1.26c-3.7-2.83-7-5.39-10.16-7.71-5.29-3.68-8.53-6.19-13.79-9.45-.49-.35-2-1.32-4.08-2.68l-1.68-1.08-1.92-1.13-4.28-2.5-4.6-2.68L1116,86.62c-3.1-1.61-6-3.19-8.33-4.24.72.46-11.49-5.32-.08.17-1.49-.69,1.82.71,7.86,4l3.9,2-.63-.32c6,3.23,13.58,7.72,22,13.24l-5.26-3.33c-1.8-1.12-3.6-2.37-5.6-3.48l-6.23-3.63c-1.1-.63-2.2-1.33-3.38-2l-3.66-1.95c-2.37-1.19-4.83-2.49-7.11-3.59l-5.86-2.68a209.44,209.44,0,0,0-24.42-10.09L1076,69.68l-3-1-5.3-1.7-6.39-1.9A463.45,463.45,0,0,0,1011,54.49c-16.88-2.65-32.43-4.3-42.29-5.16L955.17,48c5.16.37,11.28,1,14.06,1.21-8.9-.87-22.12-1.92-33.66-2.6l-8.24-.47-7.05-.31c-4.17-.2-7.16-.28-8.23-.28-11.27-.46-8.1-.38-6-.32s3.18,0-12.32-.39l4.19.07c-30.49-1-55.29-.68-80.89,0s-52,1.77-85.78,3.59c4.68-.26,7-.37,8-.4-77,4.15-158.34,12.42-234,20.5-21.5,2.3-23.81,2.66-36.92,4.18l-4.67.39-22.41,2.59c-7.94.89-15.36,1.68-22.65,2.41-3.64.39-7.26.7-10.89,1s-7.28.53-11,.73c-7.44.41-15.16.5-23.54.45s-17.42-.56-27.49-1.53l5.19.54A275.2,275.2,0,0,1,323,75.59L319.64,75l-3.06-.66-5-1.11c-2.76-.69-4.22-1.09-3.63-1l-3.54-.85c-1.67-.41-3.81-1.07-6.54-1.88l-.4-.18a180.48,180.48,0,0,1-33-13.37c-1.54-.78-2.8-1.59-3.93-2.23l-2.86-1.68L254.46,50a8.23,8.23,0,0,1-1.32-1l-3.23-2.38L247.64,45l-3-2.49c-1.21-.92-2.46-2.12-3.93-3.46s-3-3-4.75-4.76c-.66-.66-1.25-1.45-1.92-2.22s-1.36-1.58-2-2.45A62.56,62.56,0,0,1,228.18,24,55.93,55.93,0,0,1,225,18c-.44-1-.81-2.07-1.21-3.07-.18-.51-.4-1-.55-1.49l-.41-1.49c-.26-1-.56-1.89-.75-2.79l-.44-2.54a27.16,27.16,0,0,1-.4-3.95c-.14-2-.17-2.71-.13-1.31a42.49,42.49,0,0,0,1.38,9.92l.56,2.14c.19.65.44,1.22.6,1.71.36,1,.59,1.61.61,1.72L223,13.61l-.9-3.31-.23-.83c-.05-.28-.09-.57-.14-.85l-.28-1.69-.28-1.69c-.06-.57-.07-1.14-.11-1.71L220.77,1c-.06-.82-.1-1.32-.14-.68a14.63,14.63,0,0,0,0,1.9L220.7,4l.05,1.14.19,1.3.49,3.16,1,3.87c.44,1.41,1.06,2.92,1.68,4.6l1.22,2.53a23.57,23.57,0,0,0,1.42,2.71,73.4,73.4,0,0,0,15.22,18c.9.89,1.92,1.65,2.88,2.48s1.92,1.65,3,2.39a89.78,89.78,0,0,1-14.48-13.55l1.31,1.59c.43.53.91,1,1.35,1.45l2.57,2.69,2.54,2.33c.83.75,1.6,1.49,2.44,2.13a107.27,107.27,0,0,0,9.63,7.11L256.43,52c1.36.93,3.12,1.89,5.13,3.09a169.51,169.51,0,0,0,21,9.68c1.3.52-1.15-.33-2.08-.72s-.45,0,6.84,2.7c10.26,3.46-9.79-3.48,7.21,2.21,2.66.91,4.51,1.39,5.92,1.84s2.43.76,3.51,1l3.9,1,3,.74c1.16.28,2.53.55,4.14.9.91.22.67.19-.43,0s-3.07-.6-5.61-1.27l2.22.56,2.39.51,5.08,1.1c1.74.36,3.54.66,5.32,1s3.57.68,5.32.92c7,1.12,13.32,1.78,16.34,2.08,5.83.6,15.73,1.44,24.05,1.54,4.16.17,7.91.08,10.55.12s4.18,0,3.89,0l5-.19,3.78-.14,4.34-.27c6.06-.31,13-1,18.36-1.51-4.9.53-4.85.52-2.07.3l14.17-1.45c11.84-1.24,25.48-2.74,22.91-2.34,14.48-1.77,52.37-5.89,78.05-8.73l-6.52.73c14.46-1.53,18.67-1.92,28-2.85,1.84-.36,24.37-2.71,36.51-4,17.75-1.59-10.76,1.23-5.17.84-.91-.07,30.81-3.11,24.77-2.63,13.58-1.18,11.7-1,18.71-1.55,2.36-.41,12.64-1.16,23.89-2.23,19.67-1.53,5.08-.26,26.68-2,5.14-.36,2.91-.16-.61.14Zm498.86,66.83h0l-4.68-3.86L1157,114.1l3.29,2.51C1161.69,117.66,1163.28,119,1165.35,120.73Zm31.46,29.69c-3.68-3.77-8.12-8.62-13.19-13.36-1.06-1.09.15,0,3.28,3.05-.43-.4-.3-.26.22.24s1.42,1.39,2.47,2.51Zm-70.54-58c6,3.4,7.84,4.76,8.63,5.27-1.38-.85-2.82-1.87-4.54-2.84l-5.75-3.35-.71-.4Z"/><path class="cls-1" d="M1115.41,86.53l-2.51-1.31,3.62,1.93,2.16,1.1Z"/><path class="cls-1" d="M1031.12,1370.88l.9-.14-1.89.28Z"/><polygon class="cls-1" points="1179.54 671.73 1179.61 671.73 1183.04 670.14 1179.54 671.73"/><path class="cls-1" d="M795,1404.85l-3.11.43Z"/><path class="cls-1" d="M693.08,1420.45l-14.4,2.28Z"/><path class="cls-1" d="M614.91,1433.49c-1,.19-1.26.26-1.52.32l.16,0Z"/><path class="cls-1" d="M1069,871.45l-3-.15C1058.78,871,1063.65,871.2,1069,871.45Z"/><path class="cls-1" d="M1324.48,1087.34c-.12-2-.24-3.95-.37-5.95-.06-1-.1-2-.19-3s-.2-2-.3-3.06c.35,3.31.47,6.28.6,8.43S1324.44,1087.25,1324.48,1087.34Z"/><path class="cls-1" d="M657.07,934.59h0l-2.49.67Z"/><path class="cls-1" d="M1321.55,1058c.51,3.29.84,6.34,1.24,9.18.2,1.42.33,2.81.45,4.16s.26,2.66.38,3.95C1323.2,1069.87,1322.37,1063.49,1321.55,1058Z"/><path class="cls-1" d="M283.93,1521.82l-3.41,1.73a1.81,1.81,0,0,1-.39.23C281.38,1523.1,282.66,1522.47,283.93,1521.82Z"/><path class="cls-1" d="M280.13,1523.78l-3.74,2Z"/><path class="cls-1" d="M268.63,1530.2c2.54-1.54,5.16-3,7.76-4.42C273.67,1527.27,270.34,1529.13,268.63,1530.2Z"/><path class="cls-1" d="M382.08,1485l1.14-.38Z"/><path class="cls-1" d="M412.78,1476.39c-7.35,1.95-18.44,4.91-28.62,7.93l-.94.31c2.38-.74,8-2.35,13.95-4Z"/><path class="cls-1" d="M542.63,1447.43q-13.11,2.57-26.19,5.25c4.58-.9,10.61-2.08-1.29.38,16.5-3.33,14.8-3,13.25-2.71S525.46,1450.82,542.63,1447.43Z"/><path class="cls-1" d="M624.08,1432.45c-14.13,2.49.18,0-.56.19C632.48,1431.05,634.65,1430.66,624.08,1432.45Z"/><path class="cls-1" d="M1212,1327.93l-1.17.86C1220.24,1322.86,1210.94,1328.7,1212,1327.93Z"/><path class="cls-1" d="M1287.71,1243.82c-1.78,3.11-3.47,6.27-5.39,9.3l-2.57,4.43,4.09-6.8C1285.16,1248.45,1286.42,1246.13,1287.71,1243.82Z"/><path class="cls-1" d="M1313.74,1181.57l-1.32,4.65c.83-3,1.71-5.91,2.51-8.89l2.25-9-1.66,6.61-.84,3.31Z"/><path class="cls-1" d="M544.41,964.14l3.26-.74C554.89,961.45,556.37,960.9,544.41,964.14Z"/><path class="cls-1" d="M118.08,999.22c-1.06-.51-2.59-1.13-4.3-2s-3.69-1.83-5.71-2.9-4.09-2.24-6-3.39l-5.38-3.3,6.14,3.8,5.92,3.3,5.25,2.63C115.53,998.13,117,998.71,118.08,999.22Z"/><path class="cls-1" d="M1067.73,697.1c-2.89.36-5.79.63-8.68.95,2.73-.29,5.46-.54,8.18-.87l8.17-1Z"/><path class="cls-1" d="M190.73,1589.8c0,1.5,0,1.83,0,.74,0-.54,0-1.44.09-2.72a40.33,40.33,0,0,1,.54-5l.56-2.9.79-2.85A41.62,41.62,0,0,0,190.73,1589.8Z"/><path class="cls-1" d="M219,1543.77c3.83-3,8.11-6.08,10.84-7.85s3.73-2.48,1.05-.79c-2,1.34-3.65,2.42-5.06,3.45s-2.67,1.88-3.9,2.83-2.49,1.87-3.91,3-3,2.52-5,4.24a114.29,114.29,0,0,0-9.2,9.32c-.47.57-1.2,1.49-2.09,2.59s-1.84,2.48-2.78,3.91a52.69,52.69,0,0,0-4.44,8.13,62.49,62.49,0,0,1,9.83-15.13,109.54,109.54,0,0,1,15.08-14.16C221.91,1541.51,219.53,1543.3,219,1543.77Z"/><path class="cls-1" d="M1007.18,1369.87l-5.17.79Z"/><path class="cls-1" d="M1289,1042.72l1.19,5.49C1289.43,1044.74,1288.82,1041.88,1289,1042.72Z"/><path class="cls-1" d="M1254.86,964.49c1.06,1.51,2,2.73,2.92,4.15C1256.75,967,1255.54,965.47,1254.86,964.49Z"/><path class="cls-1" d="M1007.18,1369.87l13.28-2C1021.39,1367.65,1013.66,1368.88,1007.18,1369.87Z"/><path class="cls-1" d="M319.45,1495.42l-6.9,2.38,6.48-2.23Z"/><path class="cls-1" d="M787.78,1401.87l-4,.59-3.36.52Z"/><path class="cls-1" d="M619.64,1428c3.8-.64,5.11-.91,6.56-1.18l-8.27,1.43C617.87,1428.25,618.37,1428.18,619.64,1428Z"/><path class="cls-1" d="M355.91,1484.25l-4.59,1.37Z"/><path class="cls-1" d="M908.33,1384.54l1.54-.2Z"/><path class="cls-1" d="M354.09,80.85c.14,0-.06,0,0,0C353.09,80.88,352.78,80.89,354.09,80.85Z"/><path class="cls-1" d="M190.88.8,191,3.53l.06.58Z"/><path class="cls-1" d="M1125.15,881.73l.68.16C1129.85,882.86,1127.57,882.31,1125.15,881.73Z"/><path class="cls-1" d="M124.62,708.33c-3.94,1.08-4.31,1.18-3,.81l2.94-.84,4-1c5.45-1.35,9.9-2.45-2.06.43.56-.13-.52.14-2.14.55L119,709.83C115.84,710.75,114.81,711.06,124.62,708.33Z"/><path class="cls-1" d="M323.63,1494l6.64-2.16C327.24,1492.84,325.2,1493.5,323.63,1494Z"/><path class="cls-1" d="M126.52,707.74h0c-.82.21-1.65.39-2.47.61C125.07,708.08,125.65,708,126.52,707.74Z"/><path class="cls-1" d="M766,899l3.61-.78Z"/><path class="cls-1" d="M1033.57,870.58c-2.22-.13-4.45-.2-6.67-.26C1029.54,870.39,1031.69,870.47,1033.57,870.58Z"/><path class="cls-1" d="M630.15,933l-9.48,2.56,1.45-.39C623.86,934.71,626.16,934.08,630.15,933Z"/><path class="cls-1" d="M489.39,971l2.61-.67,4.47-1.16Z"/><path class="cls-1" d="M795.55,45.23l-6.73.07C791.07,45.31,769.66,45.78,795.55,45.23Z"/><path class="cls-1" d="M319.53,1495.43l4.1-1.4-4.6,1.54C318.63,1495.71,318.55,1495.75,319.53,1495.43Z"/><path class="cls-1" d="M624.54,935,602.19,941Z"/><path class="cls-1" d="M1103.66,686.08l5.18-1.17Z"/><path class="cls-1" d="M535.87,959.11l-12.61,3.35-2.6.71Z"/><path class="cls-1" d="M788.77,45.3h0Z"/><path class="cls-1" d="M636.46,53.58c22-1.71,10.33-.87,15-1.27,26.27-2,12.16-.83,21.11-1.43,16.4-1.14,29-2,41.24-2.64.91,0,3.29-.17.5,0,8.68-.49,21.57-1.17,34.82-1.68s26.87-1,37-1.22l2.64-.05c-3.28.05-3.78,0-3.11,0,9.89-.23,18.36-.4,22.08-.38-6.06.06-6.57.09-9.41.16l10.37-.16c4.67,0,1.13,0-3.58.09l-7,.11-2.53,0-1,0c10.11-.22,21.05-.31,31.4-.35s20.12.07,27.86.23c.81,0-1,0-4,0l-10.34-.11c-6.88,0-11.58,0-1.24,0l-12-.06-12,0c9.16,0,5.52,0,1.69.05s-7.84.06.58,0c15.77-.09,24.59.05,33.39.13s17.61.28,33.33.92c7.08.26-2.34-.17,4.74.12,5.58.25,10.32.47,14.4.73s7.49.44,10.44.67c5.89.4,9.91.75,13.55,1.07s6.92.64,11.33,1.06c2.21.2,4.69.45,7.65.78s6.38.65,10.46,1.16,7.16.8,11.93,1.45c2.39.31,5.24.69,8.93,1.27l6.22,1,7.77,1.35-7.88-1.28L992.26,57l6.41,1.21c3.51.63,5.68,1.11,7.9,1.57s4.5.89,8.14,1.77,8.69,2,16.39,4.16c-1.36-.4-3.5-1-5.87-1.55s-5-1.3-7.26-1.81l-5.67-1.32c10.09,2.33,13.6,3.38,16.58,4.09l4.73,1.31c1.92.53,4.44,1.23,8.22,2.45L1045,70c31,9.83,62.73,27.66,90.43,50.63-1.55-1.25-6.31-5.17.16.22,4.43,3.54,8.68,7.45,13,11.34,2.16,2,4.23,4,6.36,6.08l3.2,3.08,3.09,3.2a347.54,347.54,0,0,1,23.73,27l5.54,7.09,5.28,7.24c.87,1.21,1.77,2.39,2.6,3.61l2.5,3.67c1.65,2.45,3.36,4.85,4.93,7.32,3.13,4.93,6.28,9.78,9.12,14.71s5.63,9.77,8.29,14.56l1,1.82,1,1.86,1.94,3.7c1.26,2.49,2.63,4.92,3.81,7.44,1.69,3.51,3.11,6.52,1.27,2.73,1.85,3.84,2.8,5.82,3.23,6.73s.36.76.19.36c-.38-.81-1.18-2.64.54,1.09,4,8.86,5.19,11.73,2.67,6.11a449.92,449.92,0,0,1,20.06,54.54c.75,2.6,1.51,5.2,2.26,7.79s1.37,5.22,2,7.8c1.4,5.15,2.53,10.29,3.67,15.23.6,2.47,1.06,4.92,1.54,7.31s.94,4.72,1.4,7c.78,4.55,1.52,8.83,2.19,12.74l-1.07-6.09c1.11,6.07,1.73,10.87,2.33,14.95s1,7.5,1.39,10.85c.19,1.67.39,3.33.59,5.06s.31,3.53.48,5.48.35,4,.55,6.36.27,4.87.43,7.73l-.26-4.38a378,378,0,0,1-3.39,81.42,299,299,0,0,1-8.25,37.46c-.84,2.91-1.63,5.79-2.61,8.56s-1.79,5.53-2.75,8.18-2,5.22-2.93,7.74l-.72,1.87L1255,561l-1.54,3.57c-.37.89-1,2.33-1.75,4.16s-1.9,4-3.06,6.42l-1.84,3.81-2.14,4c-1.48,2.72-3,5.57-4.65,8.27l-2.44,4.05-1.18,2c-.41.64-.84,1.26-1.25,1.88-1.65,2.45-3.19,4.76-4.54,6.77-2.86,3.91-5,6.69-5.44,7.4-4.77,6-8.12,10-11,13l-3.84,4.12c-1.24,1.21-2.44,2.36-3.7,3.58l-4.13,4-5.6,4.83c-2.11,1.93-4.78,3.89-7.9,6.3l-2.44,1.88c-.84.65-1.79,1.24-2.73,1.9l-6.19,4.23c-2.43,1.53-4.6,2.8-6.62,4l-3,1.8-3,1.62-6.55,3.49c-2.45,1.16-5.21,2.41-8.44,3.89l-.34.09c-1.45.71-3,1.28-4.45,1.87l-4.5,1.76-2.25.89-1.12.44-1.15.38-4.58,1.52-4.9,1.56c-1.64.48-3.31.87-5,1.32l-6.44,1.73c-2.16.53-4.34,1-6.51,1.49,2.59-.61,5.37-1.14,7.35-1.69s3.25-.85,2.86-.74l-3.87,1c-1.33.33-2.69.62-4.06.93l-8.37,1.88-8.37,1.65-4,.79-3.87.67c-5,.86-9.39,1.65-12.57,2.09l-5.26.78c-16.26,2.45-32.61,4.36-49,5.91l15.81-1.63c-13.1,1.35-14.3,1.47-15.22,1.53s-1.56.1-13.59,1.17c3.23-.27-1.73.19-2.28.22l-11.53.83c-4.57.33-9.75.61-15.18,1s-11.13.58-16.73.88l-16.18.69,3.89-.2c-18.3.72-37.59,1.21-57.45,1.46s-40.28.25-60.83.08c14.74.14,11.36.19-.7.1l-4.81-.11c-7.79,0,12.58.13-3.39,0-15.35-.2-10.32-.2-1.51-.1l-18.66-.24c-1.1,0,3.28,0,4.42,0-7.66,0-32.21-.63-43.26-.84l-1.05,0c-41.08-1-59.7-1.67-93.15-2.84-.66,0-13.74-.45-23.71-.79l-81.47-3.2c-20.81-.78-6.08-.19-15.44-.52-1.52-.11-31.1-1.22-15.76-.68-35.55-1.28-45.4-1.7-90.37-3,4.88.15,10.37.33,7.52.26-8.16-.23-18.56-.52-17.39-.52l2.15.05c-25.24-.63-54.37-1.26-82.22-1.42s-54.43.06-74.52.71l2.25-.06c-13.89.44-27.79.93-41.67,1.78l-6.5.37,1-.07,2.32-.15c3.5-.2,7.61-.45.52-.07-22.45,1.36-40.15,3-56.8,5.12a432,432,0,0,0-50.26,9.05c-3.51.76-7.62,2-12.27,3.27-4.6,1.44-9.73,3-15.08,5.14A159.36,159.36,0,0,0,83.89,723a155.12,155.12,0,0,0-32.63,22.6,163.47,163.47,0,0,0-13.71,14.1,164.83,164.83,0,0,0-11,14.58l-2.29,3.58-1.12,1.74-1,1.75-2,3.38L18.33,788l1.08-2a157.53,157.53,0,0,0-8.27,17.65l.75-1.9,1.2-2.75c.73-1.66,1.09-2.49-.14.37A161.85,161.85,0,0,0,0,862.18a156.23,156.23,0,0,0,13.29,63.9,145.45,145.45,0,0,0,7.58,14.68c1.36,2.4,2.9,4.69,4.39,7,.75,1.16,1.58,2.26,2.37,3.39s1.57,2.27,2.44,3.34a141.64,141.64,0,0,0,22.86,23.82c1.07.86,2.12,1.76,3.21,2.6l3.31,2.47,1.65,1.24,1.71,1.16,3.41,2.32c1.15.75,2.33,1.44,3.5,2.17s2.32,1.48,3.53,2.12c2.41,1.31,4.77,2.72,7.25,3.9A168.71,168.71,0,0,0,111,1008.09c1.91.55,3.68.95,5.28,1.37s3.07.78,4.42,1c2.69.55,4.87,1,6.74,1.37l4.88.78c1.43.24,2.74.45,4.12.59,2.76.31,5.76.77,10.59,1.17l8.77.82,12.67.9-11.35-.71a646.32,646.32,0,0,0,97.39-.25,949.09,949.09,0,0,0,95.6-12.48l-9.82,1.75,13.06-2.27c5.13-1,10.76-2,16-3l13.55-2.71,5.79-1.24c9.57-2,2.23-.42,8.13-1.64,13-2.75,32.57-7.33,39.45-8.94,1.17-.26-3.63.87-6,1.44,8.45-1.91,39.24-9.52,31.17-7.58,22.87-5.67,43.66-11.2,61.82-16,11.82-3.21,38.94-10.49,42.67-11.61-1.6.54,39.85-10.83,54.23-14.75-4.81,1.32,12.5-3.35,6.88-1.8,16.4-4.44,31.46-8.43,28.59-7.71,30.28-8,60.94-15.76,78.13-19.66,49.11-11.71,95-20.84,140-27.21-.4.08-3.7.57-8.41,1.25s-10.78,1.68-16.76,2.61l-16.07,2.71c-4.23.77-6.86,1.26-6.37,1.2,21.2-3.82,38-6.42,54.77-8.72s33.57-4.2,54.87-5.9c11-.89-6.26.55-10,.89a799.33,799.33,0,0,1,121.37-2.11c-.05,0-1.11-.08-2.64-.15l-5.49-.26c7.55.29,17.52,1.17,16.67,1l-7.34-.53c-6-.47,1.47,0,10.62.69s19.93,1.81,20.59,1.93c-6.36-.7,3,.43,11.48,1.46,8.42,1.24,15.9,2.44,5.83,1l7.24,1.08c2,.28,3.26.57,2.7.43,7.23,1.43,9.53,1.89,2.19.48l8.39,1.64,1.67.33,1.51.36,2.62.63,7.2,1.72c1,.22,1.94.48,3,.79l3.66,1.06c2.85.84,6.72,1.83,12.48,3.89l-.82-.26-1.89-.64c-1.48-.5-3.25-1.1-4.48-1.41,1.5.39,3,.92,4.44,1.42l4.52,1.52c1.53.53,3.1,1,4.7,1.61l4.89,1.92,5.26,2.07c1.81.74,3.65,1.63,5.6,2.49s4,1.78,6.11,2.79l6.56,3.39c-1.11-.56,1,.55-4.47-2.27a212.76,212.76,0,0,1,40.61,26.27l2.27,1.85c.75.62,1.46,1.3,2.2,1.95l4.4,4c1.52,1.3,2.89,2.78,4.34,4.22l4.37,4.4,4.26,4.76,2.18,2.44c.72.84,1.39,1.72,2.1,2.59l4.3,5.35,4.19,5.79c-3.4-4.63-1.46-1.94,1.47,2.12,2.74,4.19,6.41,9.81,6.8,10.77l2.64,4.53c.43.76.89,1.5,1.3,2.28l1.2,2.32c1.6,3.11,3.27,6.18,4.67,9.38-.59-1.27-1.14-2.56-1.76-3.82l-1.92-3.74a214,214,0,0,1,17.66,47c-.58-2.2-1.13-4.41-1.73-6.6l-2-6.52c.81,2.75,1.72,5.47,2.45,8.24l2.14,8.33,1.8,8.41c.58,2.81,1,5.65,1.51,8.47q-1.53-9.62-3.84-19.09c.62,2.24.93,3.93,1.21,5.16s.45,2,.56,2.55a8.52,8.52,0,0,0,.27,1.09c0,.11.1.41.48,2.17s.9,5,1.91,11c-.34-2.46.27,2.09,1.1,8.45.36,3.19.65,6.84,1,10.28s.37,6.7.5,9.09v-.06a283.35,283.35,0,0,1-.41,32c-.3,3.51.14-2.84-.05-.55s-.46,6-.89,10.64c-.27,2.3-.57,4.8-.87,7.42-.14,1.31-.33,2.64-.55,4s-.41,2.71-.61,4.08c-1.7,10.92-4.11,22-5.55,27.51.92-3.67.93-3.87.61-2.67l-1.79,7.31c-2.31,8.19-2.7,9.37-2.34,8-.85,3.08-1.62,5.22-2.08,6.74s-.76,2.37-.9,2.8c-.27.88,0,0,.23-.63s.42-1.21,0,.22c-.25.72-.59,2-1.28,3.86s-1.63,4.55-2.92,8.12c.8-2.24.42-1.17,2.08-5.85-10.23,28.73-23.63,54.2-40.59,76.53-1.27,1.63-1,1.23.09-.18l2.07-2.72c.78-1.1,1.64-2.33,2.51-3.55l2.47-3.5c.76-1.08,1.35-2,1.8-2.72.87-1.35,1-1.58-.29.39a256.41,256.41,0,0,1-18.57,24.45,207.81,207.81,0,0,1-22.06,22,178,178,0,0,1-25.07,18,144.91,144.91,0,0,1-27.2,12.51l3.44-1.21c1.14-.4,2.29-.8,3.4-1.3a137.37,137.37,0,0,1-18.11,5.91c-8.81,2.21-19.43,4.56-29.11,6.57,4.74-1,6.2-1.36,4.92-1.07-26.22,5.49-53.78,10.4-93.87,16.8l5-.81c-15.59,2.48-41.09,6.37-58,8.85-5,.78-14.66,2.19-8.79,1.37l-145.49,20.92c5.52-.8,13.16-1.93,8.76-1.29L785.17,1402l13.43-1.9-25.82,3.83c17.68-2.63-.17-.06-7.81,1,1.29-.18-1.33.23-.68.14-20.55,3-3.43.59-31.48,4.74l1.48-.25-31.45,4.84c-4.7.67,11.15-1.74,11.87-1.89l-45.7,7.17,23.18-3.68c-15.66,2.38-17.47,2.7-29.09,4.54l1.14-.18-26.86,4.33,6.84-1.11c-19.82,3.39-40.4,6.72-67.06,11.54,25.92-4.66,4.28-.81,6.25-1.22-6.81,1.18-17.17,3-14.22,2.48-12.59,2.33-21,3.77-38.78,7.22-.8.12-13.45,2.59-10.62,2-16.34,3.2,3.87-.72,2.5-.43-25.18,5-59.18,11.69-95.09,20.26-15.49,3.68-24.62,6-33.47,8.32s-17.41,4.58-31.61,8.64c-4.79,1.36-2.83.78.32-.14l7.52-2.14c-15.5,4.3-27.1,7.75-41.51,12.42,2.92-1-.11,0-4.5,1.42-5.77,1.91-7.68,2.6-10.06,3.43s-5.22,1.82-12.75,4.56c2.57-1,5.88-2.21,11.41-4.17-13.53,4.74-26.76,9.79-40.36,15.75-3.63,1.53,8.19-3.63,13.05-5.56-7.74,3.1-17.66,7.4-26.08,11.5s-15.34,8-17.57,9.25l4.68-2.6,4.73-2.5c-5.36,2.87-2.8,1.4,1.18-.66,12.74-6.5,18.66-8.78,19.38-9.14-3.23,1.41-6.42,2.89-9.62,4.39,4.93-2.27,14.6-6.66,25.68-11s23.5-8.9,33.59-12.25c-2.8,1-5.58,2-8.36,2.94,6.86-2.42,13.76-4.7,20.68-6.94,4.44-1.36,7.47-2.29-2.54.9,7.27-2.3,10.5-3.29,13.47-4.2s5.69-1.73,12-3.55c1.39-.39.76-.21-.53.16,4.77-1.38,9.55-2.76,14.33-4.09-2.81.8,2.4-.61-6.42,1.84,25.76-7.19,41.67-11.12,51.45-13.47l-2.17.53,16.19-3.9a23.12,23.12,0,0,0,2.46-.61c-.26,0-1.65.32,11.91-2.82q9.13-2,18.31-3.91l3.55-.84c3.75-.81,11.15-2.37,9.79-2.06,13.93-3-2.39.47,5.7-1.26,9-1.87,21.46-4.41,32.18-6.51s19.68-3.81,21.73-4.15c6.48-1.28-17.32,3.26,2-.45,5.53-1,22.34-4.21,38.92-7.11-5.08,1-20.77,3.77-4.19.82,10-1.89,32.28-5.67,46.28-8,.16,0,2.14-.39,5.39-.94l13-2.17,35.56-5.77,24.33-3.78,41.89-6.37-.65.11c4.23-.72,26.85-4.08,43.31-6.5-.64.14-3.6.59-12.51,1.92l15.48-2.27,18.52-2.74-3.89.62,68-9.83c1.49-.26-21.11,2.88,6.93-1.17,1-.12,2.09-.22-5.25.84l13.42-1.93-11.2,1.65,16-2.32c-.19.07,7.15-1,5.77-.77l-12.12,1.74,28.41-4c-1,.11,0,0,8-1.21,20.61-3,7.06-1,19.09-2.69l11-1.61c4-.59,7.32-1.09,7.49-1.14l9.48-1.35c10.67-1.56,49.79-7.51,37.77-5.75l-2.74.42,1.75-.27h0c34.9-5.43,72.51-11.34,106.89-18.26l0,0c10.25-2.07,21.64-4.52,32.21-7.15,2.66-.62,5.22-1.41,7.72-2.12,1.24-.38,2.49-.68,3.68-1.11l3.49-1.23,3.34-1.19c1.08-.4,2.09-.87,3.1-1.29,2-.86,3.89-1.61,5.58-2.4l4.36-2.13c1.46-.71,2.86-1.36,4-2,2.23-1.23,3.5-1.92,2.35-1.27,1.73-1,3.32-1.8,4.69-2.69l3.79-2.4c2.38-1.44,4.36-2.88,6.54-4.42,1.09-.77,2.24-1.55,3.46-2.46l3.93-3.06,2.3-1.79c.8-.63,1.6-1.36,2.48-2.09l2.77-2.37c1-.84,2-1.72,3.06-2.72-1.44,1.4-2.56,2.28-3.3,2.94l-1.39,1.21.19-.16-.65.56-2.46,2.11c-1.2,1-2.85,2.23-5,3.93a196.16,196.16,0,0,0,17.66-15.25c1.17-1.15,2.31-2.35,3.52-3.58s2.51-2.5,3.8-4l4.25-4.73c.78-.85,1.55-1.77,2.35-2.76l2.54-3.07c-1.2,1.47-1.18,1.45-.36.48s2.45-2.87,4.27-5.31,4.08-5.25,6-8.11l2.88-4.07c.89-1.29,1.66-2.51,2.34-3.54l-2,3-2.11,3c-1.43,2-2.77,4-4.27,5.91a279.34,279.34,0,0,0,16.84-25.66c-.85,1.57-1.79,3.08-2.68,4.62a266,266,0,0,0,14.3-26.87c.51-1.1,1-2.18,1.52-3.28s1-2.2,1.42-3.29c.93-2.18,1.91-4.32,2.76-6.48,1.7-4.33,3.4-8.56,4.85-12.8a318,318,0,0,0,13.14-49c1-5.54-.06.14-1.15,6-1.28,5.79-2.59,11.72-1.54,6.8,2.26-9.52,3.83-19.4,5-27.63.25-2.06.49-4,.71-5.84s.44-3.52.55-5c.27-3.07.48-5.49.61-7,.42-6.69.67-11.6.67-15.64,0-2,.06-3.82.08-5.52s-.08-3.29-.12-4.89-.07-3.22-.11-4.95-.21-3.59-.33-5.69-.22-4.43-.51-7.1c-.12-1.34-.26-2.77-.4-4.3s-.27-3.16-.53-4.89c.25,1.78.37,3.52.23,2.2-.09-.66-.29-2.08-.63-4.63-.18-1.27-.39-2.83-.64-4.72s-.7-4.09-1.13-6.67c-1.71-9.64-3.19-15.48-3.69-17.44-.24-1-.23-1,0,0l.58,2.22c.13.49.28,1.05.44,1.67s.29,1.32.45,2.08c1,4.59,1.36,6.42,1.4,6.61,1.17,6.22,2.52,14.42,1.25,6.77l-.45-2.5c-.22-1.2-.41-2.67-.77-4.29s-.73-3.4-1.12-5.26c-.72-3.73-1.86-7.65-2.71-11.13-.42-1.74-.93-3.33-1.34-4.71l-1-3.4c-.51-1.72-.65-2.19-.18-.68-.27-.89-.52-1.68-.74-2.4l-.66-1.88-.86-2.42c-.37-1-.37-1-.11-.26s.81,2.31,1.5,4.3,1.37,4.49,2.17,7.11c-.46-1.5-.9-3-1.33-4.39s-.85-2.82-1.34-4.16c-1-2.68-1.85-5.24-2.72-7.72s-1.94-4.8-2.88-7.13l-.7-1.74-.77-1.7c-.52-1.13-1-2.25-1.55-3.38a198.35,198.35,0,0,0-16.06-28.6c2.23,3.45,4.26,6.65,2,3.21-.65-1-1.26-1.94-1.84-2.84-.3-.45-.58-.89-.86-1.32s-.59-.81-.87-1.21l-3-4.22c-1.78-2.55-3.31-4.38-4.48-5.84-2.37-2.9-3.4-4.27-4.3-5.24l-3-3.32-3-3.34c-1.36-1.41-3.12-3.15-5.38-5.44-2.53-2.63-3.72-3.56-4.13-4s-.21-.21-.24-.25l-1.82-1.66c-.74-.67-1.78-1.62-3.24-2.93s-3.47-2.84-6-4.89c-3-2.55-4.86-3.73-5.61-4.33s-.54-.41.24.15,2.15,1.49,3.56,2.62l4.14,3.35c-4.5-3.81-9.19-7.07-13.58-10.29-4.58-2.94-8.84-5.92-13.12-8.28-2.11-1.21-4.13-2.44-6.12-3.53l-5.82-3c-3.68-2-7.19-3.48-10.25-4.88l5.66,2.55c1.89.86,3.7,1.87,5.55,2.79l-4.75-2.43L1173,898c-3-1.3-5.7-2.68-8.61-3.75,2.21.84,4.35,1.85,6.5,2.84-1.67-.73-3.24-1.52-4.73-2.1l-4-1.58-2.67-1.06-.93-.38c-3.5-1.36-2.17-.82-1.7-.61s.12,0-7-2.36l-3.85-1.32-2.17-.74-2.32-.67-9.69-2.8c-6.42-1.54-12.05-3-13.7-3.31,14.88,3.52,14,3.36,12.66,3-.69-.18-1.52-.39-.62-.18s3.55.93,9.76,2.73l-8-2.31L1122.2,881l3,.7c-7.09-1.84-11.54-2.51-14.58-3.15s-4.73-1-6.46-1.17l-6.7-1c-1.6-.23-3.56-.55-6.06-.89l-9.32-1.12c3.83.43-7-.95-11.89-1.33,12.16,1.17,5.81.62-5.35-.43l-3.42-.33-3.06-.23-5.14-.38-7.44-.53-12.16-.6,11.6.61c-3.94-.14-13.63-.78-27.18-1.07-1.15-.06,12.3.34,7.47.19-3.76-.08-7.76-.25-12-.3l-13.27-.13-14.38.13c-5,.12-10.07.3-15.31.46-9.71.41-.94,0-9.47.36-2.93.16-5.53.26-7.88.42l-6.37.42c-3.86.27-7.08.42-10.33.71l-10.54.87c-4,.32-8.73.85-14.88,1.45,3.54-.33,5.63-.53,4.66-.42s-5,.44-13.63,1.49c6.72-.82,13.46-1.43,20.2-2.12,3.36-.33,6.74-.58,10.11-.88s6.74-.59,10.12-.79c-4.33.27-8.66.71-13,1.06l-6.49.57-6.48.66c12.19-1.26,25.76-2.27,33.09-2.71-12.39.86-11.11.76-5.26.41-16.73,1.11-33.13,2.75-52.38,5l.58-.19c-7.23.95-14.06,1.75-20.8,2.77l-10.1,1.47-10.24,1.62c-13.85,2.26-28.75,4.82-47.32,8.46l12-2.28-14.84,2.88c-6.6,1.36-14.1,2.81-20.08,4.13,1.1-.27-6.39,1.29-11.51,2.37l-13.7,3.06c-7.25,1.67-15,3.45-16.65,3.89l-16.45,3.86c-14.84,3.6-23.29,5.76-31.59,7.9l-30.65,8c8.55-2.29-4.37,1.06,14.66-3.93l-12.59,3.28-4,1.07c-1,.26-1.53.41-1.56.43-5.55,1.41-26.26,7.05-35,9.37l-15.9,4.38c-1.16.31,0,0,0,0l-7.16,2c-3,.83-4.82,1.34-.17.09l-54.84,14.9C524.2,961.9,504.74,967.06,492,970.3c-20.71,5.41-45.72,11.65-64.65,16,1.21-.29.06,0,3.63-.87l-21.53,5c-4.48,1-9.38,2.17-24.32,5.23-15.26,3.1,15.85-3.33,6.34-1.38l-22.11,4.43c-5.52,1.07-11.54,2.19-17.45,3.28s-11.7,2.08-16.77,2.86c1.63-.27,3.27-.52,4.9-.82-15.47,2.54-37.78,6.18-63.28,8.74,0,0,1.24-.14.15,0-4.36.45-9.69,1-15.63,1.5-3,.24-6.09.54-9.31.76l-9.94.65c-3.39.25-6.83.34-10.28.52s-6.92.33-10.34.39l-10.11.24-9.6,0c7.67-.07,11.2,0,6.52-.09-5.53,0-4.72,0-5.28.06s-2.51.16-13.54-.1c-1.79-.06-4.13-.07-6.66-.18l-7.82-.37c-5.14-.19-9.63-.59-10.68-.67l5.19.35c1.73.11,3.46.16,5.19.24,3.47.14,6.93.33,10.4.43-10.65-.44-26.91-1.19-37.81-2.44l1.4.1-5.6-.52-4.94-.62c-3.11-.34-5.83-.84-8.33-1.25s-4.74-.85-6.88-1.3l-3.15-.65c-1-.21-2-.49-3-.74-4.07-1-8.18-2.12-13.28-3.76-2.52-.89-5.35-1.75-8.45-3-1.55-.63-3.23-1.21-5-2l-5.52-2.46,3.22,1.47-3-1.32-2.53-1.24c-1.56-.78-2.91-1.42-4.07-2l-5.73-3.2L66.79,988c-2.16-1.51-5-3.25-8.69-6.09-.75-.58-1.5-1.14-2.23-1.73l-2.16-1.82A144.77,144.77,0,0,1,33.2,957.91a157.2,157.2,0,0,1-10.73-15.12,160,160,0,0,1-8.4-15.72A145.23,145.23,0,0,0,27,949.54a143.25,143.25,0,0,0,18.58,21.61l-3.79-3.72-4.39-4.73c-1.47-1.75-3.07-3.53-4.58-5.44s-3.05-3.82-4.41-5.82A153.49,153.49,0,0,1,17,932.9c1.18,2.17,2.42,4.66,3.88,7,.72,1.19,1.39,2.41,2.12,3.54s1.43,2.22,2.09,3.24a141.72,141.72,0,0,1-12.39-22.89,148.57,148.57,0,0,1-5.45-14.7A168.29,168.29,0,0,1,3,892.22c.25,1-.43-2.32-1.25-8.3A158,158,0,0,1,.42,860a164,164,0,0,1,2.93-27.93A158.24,158.24,0,0,1,30.83,768.9c1.68-2.16,3.27-4.4,5.07-6.49l2.65-3.19,2.8-3.09,1.4-1.56,1.47-1.49,3-3,3.09-2.9,1.56-1.45c.52-.47,1.07-.93,1.61-1.4l3.25-2.79c1.11-.9,2.26-1.78,3.39-2.67,2.23-1.83,4.65-3.45,7-5.18a159.47,159.47,0,0,1,15.25-9.28c2.64-1.49,5.41-2.77,8.18-4.12,1.38-.69,2.82-1.25,4.24-1.89s2.84-1.29,4.32-1.81c-4.14,1.64-5.32,2.22-4.88,2l1.76-.77c.9-.39,2-.91,3.35-1.38,2.58-1,5.57-2.16,7.78-2.9s3.59-1.2,2.85-1c5.54-1.9,9.48-2.87,12.08-3.63s3.95-1,4.46-1.17c11.47-2.93,23.12-5.07,34.81-6.9,4.16-.64,1.41-.2-2.25.38s-8.19,1.45-7.66,1.34l4.28-.77,3.46-.55,4.85-.76c2.45-.37,3.51-.54,4.31-.64l10.52-1.36c-1.72.22.48-.13,4.94-.63l8.17-.94,10.29-1-10.25,1L181.71,698l11.61-1.33,8.8-.85c5.12-.52,9-.74,12.88-1.07s7.77-.55,12.94-.9,11.64-.7,20.66-1.19l-11.41.65c9.25-.58,26.34-1.34,43.39-1.8s34.06-.61,43.15-.74c3.28,0,7.62,0-.55.06,44.33-.28,98.66.88,133.09,2l-3.36-.07c8.27.24,14.39.38,24.74.75-.54,0-3.33-.08.5.05,4.37.12,22,.68,32.9,1.1l-9.36-.3,102.54,3.8.37,0,1.09,0,4.06.19,13.51.56,31.84,1.24h-.6c50.32,1.85,85.48,2.89,132.09,3.8,14.47.33,39,.73,65.68.79s55.62-.3,78.86-1c-7.1.21,1.16-.11,9.42-.38,5.46-.18,13-.52,19-.78s10.34-.53,9.47-.44l-3.88.19c8.22-.26,30.62-1.63,48.07-3.16l2.87-.35c22.82-1.91,52.68-5.42,79.58-10.77,6.74-1.27,13.26-2.79,19.48-4.2l9-2.41,2.16-.58c.71-.21,1.41-.45,2.1-.67l4.07-1.34c5.37-1.61,10.1-3.64,14.32-5.24l1.55-.61,1.46-.66,2.76-1.25,4.78-2.16c1.28-.54,2.51-1.27,3.8-1.93L1165,665c1.32-.73,2.71-1.37,4-2.19s2.63-1.6,4-2.39l4-2.4c1.3-.8,2.53-1.71,3.77-2.54l3.65-2.51,1.77-1.21c.58-.41,1.11-.85,1.66-1.27l-.44.41a185,185,0,0,0,29-26.37c.52-.57,1.06-1.13,1.57-1.72l1.51-1.82,3.1-3.73c2.16-2.47,4.11-5.29,6.3-8.18s4.26-6.11,6.57-9.5c1.18-1.68,2.26-3.51,3.39-5.4l3.52-5.88-3.94,6.65c1.37-2.29,2.62-4.37,3.78-6.29l2.93-5.47c.9-1.7,1.78-3.27,2.53-4.81l2.14-4.52,2.1-4.46c.66-1.53,1.32-3.11,2-4.78l2.27-5.36c.73-1.95,1.53-4,2.39-6.35.71-1.85,1.51-3.66,2.12-5.54A307.45,307.45,0,0,0,1273.87,493a367.72,367.72,0,0,0,3.79-55.58c0,.6,0,1.7,0,7.74,0-2.2,0-4.9,0-7.95,0-1.52,0-3.12-.06-4.79s-.09-3.4-.14-5.17-.06-3.59-.17-5.41-.2-3.68-.31-5.52-.2-3.69-.31-5.51-.3-3.6-.45-5.34c-1.14-13.94-2.83-24.8-2.43-21.64,0-.06-.08-.69-.23-1.8s-.38-2.7-.66-4.65c-.14-1-.29-2-.46-3.19s-.4-2.35-.62-3.64l-1.44-8.36c-2.24-11.87-5.55-26-8.21-35.74l.84,3c-1-4.12-2-7.2-2.77-9.9s-1.44-5-2.23-7.5-1.66-5.18-2.77-8.66c-.54-1.74-1.2-3.67-2-5.85l-2.61-7.44c-.94-2.65-1.41-3.79-1.24-3.42s.91,2.27,2.11,5.81c-1.49-4.45-2.75-7.45-3.65-9.89s-1.61-4.26-2.39-6.18-1.64-3.94-2.83-6.81c-.6-1.42-1.25-3.08-2.1-5l-3-6.72,3.48,7.72c-2-4.4-3.4-7.61-4.51-10.11s-2-4.23-2.72-5.75l-2.07-4.25c-.72-1.49-1.54-3.2-2.78-5.54-1.42-2.68-3.12-6.08-5-9.63s-4-7.29-6-10.76-3.92-6.62-5.39-9.1-2.62-4.19-3-4.8c-.73-1.08-2.47-3.87-4.89-7.53-1.24-1.8-2.63-3.84-4.11-6-.75-1.08-1.51-2.2-2.29-3.34l-2.47-3.41c-.9-1.24,1.57,2.08,2.77,3.78-9.28-13.18-17-22.41-23.92-30.56-1.8-2-3.54-3.92-5.25-5.83l-2.57-2.85-2.65-2.75-5.35-5.56c-1.85-1.84-3.79-3.68-5.77-5.61-.32-.34-1.36-1.35-2.68-2.63q3.46,3.33,6.72,6.49c1.1,1,2.13,2.09,3.12,3.14l2.94,3.05c3.87,3.91,7.09,7.63,9.81,10.64s4.73,5.51,6.07,7.07l1.61,1.92-.54-.66-1.35-1.64-3.39-4.09c-1-1.17-1.72-1.95-1.46-1.68s1.49,1.58,4.12,4.75c-2.61-3.23-6-6.8-9.5-10.76-1.75-2-3.74-3.93-5.68-6s-3.94-4.16-6.08-6.15l-6.35-6.12c-2.15-2-4.37-3.92-6.5-5.86l-3.19-2.85-3.2-2.66-6.09-5.06c-.76-.62-1.52-1.18-2.1-1.64l1.66,1.26c-3.7-2.82-7-5.38-10.15-7.71-5.28-3.67-8.53-6.17-13.78-9.43L1103,96.71l-1.68-1.08-1.92-1.13L1095.17,92l-4.6-2.67-4.73-2.49c-3.09-1.62-6-3.2-8.32-4.25.75.42-11.46-5.35,0,.09-1.49-.68,1.82.72,7.85,4l3.9,2-.63-.32c6,3.22,13.57,7.71,22,13.23l-5.25-3.34c-1.8-1.12-3.59-2.38-5.59-3.49l-6.23-3.63c-1.09-.63-2.19-1.33-3.38-2l-3.67-1.94c-2.35-1.21-4.8-2.52-7.07-3.64l-5.85-2.71a212.32,212.32,0,0,0-24.44-10l-3.14-1.1-3-1-5.29-1.68-6.4-1.87A462.8,462.8,0,0,0,981,54.68c-16.88-2.66-32.42-4.33-42.27-5.25-8.92-.83-10.25-1-13.58-1.25,5.16.38,11.27,1,14.06,1.23-8.91-.88-22.13-1.93-33.66-2.62l-8.24-.48-7-.32c-4.17-.21-7.17-.31-8.23-.32-11.28-.45-8.11-.34-6-.28s3.17,0-12.32-.38l4.18.1c-30.48-.9-55.27-.67-80.88-.09s-52,1.69-85.77,3.59l8-.43c-77,4.22-158.35,12.36-233.95,20.54-21.49,2.33-23.81,2.64-36.92,4.12l-4.66.46-22.42,2.52-22.65,2.41c-3.64.39-7.26.71-10.89,1s-7.28.54-11,.75c-7.44.43-15.17.53-23.55.48s-17.43-.56-27.5-1.56l5.19.5A270.15,270.15,0,0,1,293,75.67l-3.35-.62-3.07-.66-5-1.1c-2.76-.69-4.22-1.08-3.63-.94l-3.55-.88c-1.66-.41-3.8-1.08-6.53-1.87l-.42-.16a179.9,179.9,0,0,1-33-13.43c-1.55-.77-2.81-1.58-3.94-2.22l-2.86-1.67-3.17-2.07a13.24,13.24,0,0,1-1.35-.93c-.21-.13-.75-.5-3.25-2.35l-2.28-1.66-3.06-2.49c-1.2-.92-2.46-2.13-3.93-3.47s-3-3-4.76-4.77c-.66-.66-1.26-1.46-1.93-2.23s-1.37-1.58-2-2.45A63.1,63.1,0,0,1,198,24.1,56.21,56.21,0,0,1,194.8,18c-.44-1-.81-2.08-1.2-3.09-.19-.51-.41-1-.56-1.5l-.4-1.49c-.26-1-.55-1.9-.75-2.8l-.42-2.56a26.93,26.93,0,0,1-.39-4c-.13-2-.15-2.71-.1-1.3a42.14,42.14,0,0,0,1.39,9.93l.57,2.14c.19.65.44,1.22.61,1.71l.63,1.71L193,13.61l-.91-3.31-.22-.83c-.06-.28-.1-.56-.15-.84l-.27-1.7-.28-1.69c-.06-.57-.07-1.14-.11-1.71L190.82,1c0-.82,0-1.32-.07-.68a17,17,0,0,0,0,1.9L190.87,4l0,1.13.2,1.3.51,3.13,1,3.86c.44,1.4,1.07,2.9,1.68,4.58l1.22,2.51A24.23,24.23,0,0,0,197,23.17a73.15,73.15,0,0,0,15.13,17.94c.9.88,1.92,1.63,2.89,2.45s1.93,1.64,3,2.37a89.75,89.75,0,0,1-14.44-13.52L204.84,34c.43.52.91,1,1.35,1.44l2.56,2.68,2.54,2.32c.82.74,1.59,1.49,2.43,2.13a112.36,112.36,0,0,0,9.58,7.12l3.25,2.14c1.37.92,3.13,1.87,5.14,3.06a169.87,169.87,0,0,0,20.92,9.76c1.3.5-1.14-.37-2.06-.77s-.43,0,6.84,2.65c10.24,3.5-9.8-3.4,7.17,2.32,2.67.89,4.52,1.36,5.93,1.81s2.43.74,3.51,1l3.9,1,3,.75c1.17.28,2.53.55,4.14.9.91.21.68.17-.42-.06s-3.07-.61-5.6-1.28l2.22.56,2.38.51,5.07,1.11c1.75.36,3.54.66,5.32,1s3.57.68,5.32.92c7,1.13,13.3,1.8,16.31,2.12,5.84.57,15.73,1.42,24,1.52,4.16.17,7.91.08,10.55.1s4.17,0,3.89,0l5-.16,3.77-.13,4.34-.26c6.06-.3,13-1,18.35-1.48-4.9.51-4.85.48-2.07.26l14.16-1.46c11.85-1.25,25.49-2.75,22.9-2.41,14.5-1.68,52.38-5.85,78.07-8.64l-6.53.72,28-2.91c1.85-.28,24.38-2.61,36.53-3.84,17.74-1.65-10.77,1.15-5.19.68-.9,0,30.82-3,24.78-2.51,13.58-1.22,11.7-1.06,18.7-1.64,2.37-.31,12.64-1.15,23.91-2.16l26.67-2.08c5.14-.38,2.9-.19-.61.09Zm499,67h0l-4.69-3.87-3.62-2.77,3.29,2.52C1131.78,117.54,1133.38,118.92,1135.45,120.62Zm31.46,29.7c-3.68-3.78-8.11-8.62-13.19-13.37-1.07-1.07.12.06,3.25,3.08-.42-.4-.29-.27.23.24s1.43,1.38,2.48,2.5ZM1096.15,92.6c6,3.4,7.83,4.75,8.63,5.25C1103.4,97,1102,96,1100.25,95l-5.75-3.35-.7-.4Z"/><path class="cls-1" d="M1085.33,86.68l-2.5-1.32,3.61,1.92,2.16,1.12Z"/><path class="cls-1" d="M1001.11,1370.79l.9-.13-1.89.28Z"/><polygon class="cls-1" points="1149.65 671.96 1149.71 671.95 1153.14 670.37 1149.65 671.96"/><path class="cls-1" d="M765,1405l-3.1.44Z"/><path class="cls-1" d="M663.1,1420.57l-14.4,2.3Z"/><path class="cls-1" d="M584.94,1433.64l-1.53.29.16,0Z"/><path class="cls-1" d="M1039,871.24l-3-.16C1028.79,870.73,1033.66,871,1039,871.24Z"/><path class="cls-1" d="M1294.56,1087.34c-.12-2-.23-4-.35-5.95-.06-1-.1-2-.19-3s-.19-2-.29-3.06c.36,3.32.48,6.28.6,8.43S1294.54,1087.24,1294.56,1087.34Z"/><path class="cls-1" d="M627,934.32l0,0-2.5.68Z"/><path class="cls-1" d="M1291.66,1058c.51,3.3.85,6.34,1.24,9.19.21,1.42.34,2.81.46,4.16s.25,2.66.37,4C1293.31,1069.86,1292.47,1063.47,1291.66,1058Z"/><path class="cls-1" d="M254,1522l-3.4,1.73-.4.22C251.46,1523.25,252.74,1522.63,254,1522Z"/><path class="cls-1" d="M250.21,1523.93l-3.75,2Z"/><path class="cls-1" d="M238.7,1530.33c2.55-1.54,5.16-3,7.76-4.41C243.75,1527.41,240.42,1529.27,238.7,1530.33Z"/><path class="cls-1" d="M352.12,1485.16l1.15-.36C352.64,1485,352.24,1485.11,352.12,1485.16Z"/><path class="cls-1" d="M382.82,1476.54c-7.35,2-18.43,5-28.6,8l-1,.3c2.39-.73,8-2.35,13.94-4S379.33,1477.48,382.82,1476.54Z"/><path class="cls-1" d="M512.61,1447.33q-13.11,2.58-26.19,5.27c4.58-.92,10.6-2.13-1.3.33,16.5-3.37,14.8-3,13.26-2.71S495.44,1450.73,512.61,1447.33Z"/><path class="cls-1" d="M594.06,1432.32c-14.13,2.49.17,0-.57.15C602.45,1430.9,604.62,1430.52,594.06,1432.32Z"/><path class="cls-1" d="M1182,1327.82l-1.2.81C1190.14,1322.72,1180.86,1328.56,1182,1327.82Z"/><path class="cls-1" d="M1257.83,1243.88c-1.77,3.12-3.46,6.29-5.37,9.32l-2.61,4.41,4.1-6.8C1255.27,1248.52,1256.54,1246.19,1257.83,1243.88Z"/><path class="cls-1" d="M1283.52,1181.51l-1.33,4.65c.84-3,1.72-5.92,2.52-8.89l2.26-9-1.67,6.61-.84,3.3Z"/><path class="cls-1" d="M514.46,964.34l3.25-.8C524.93,961.6,526.43,961.13,514.46,964.34Z"/><path class="cls-1" d="M88,999.36c-1.06-.51-2.6-1.12-4.31-2s-3.7-1.83-5.73-2.9-4.09-2.24-6-3.39l-5.38-3.32c2.06,1.3,4.14,2.57,6.15,3.8l5.93,3.29,5.26,2.63C85.47,998.26,86.9,998.84,88,999.36Z"/><path class="cls-1" d="M1037.7,696.85c-2.89.36-5.78.62-8.68.93,2.73-.29,5.46-.54,8.18-.86l8.17-1Z"/><path class="cls-1" d="M250.73,1589.8c0,1.5,0,1.83,0,.74,0-.54,0-1.44.09-2.72a40.33,40.33,0,0,1,.54-5l.56-2.9.79-2.85A41.62,41.62,0,0,0,250.73,1589.8Z"/><path class="cls-1" d="M279,1543.77c3.83-3,8.11-6.08,10.84-7.85s3.73-2.48,1-.79c-2,1.34-3.65,2.42-5.06,3.45s-2.67,1.88-3.9,2.83-2.49,1.87-3.91,3-3,2.52-5,4.24a114.29,114.29,0,0,0-9.2,9.32c-.47.57-1.2,1.49-2.09,2.59s-1.84,2.48-2.78,3.91a52.69,52.69,0,0,0-4.44,8.13,62.49,62.49,0,0,1,9.83-15.13,109.54,109.54,0,0,1,15.08-14.16C281.91,1541.51,279.53,1543.3,279,1543.77Z"/><path class="cls-1" d="M1067.18,1369.87l-5.17.79Z"/><path class="cls-1" d="M1349,1042.72l1.19,5.49C1349.43,1044.74,1348.82,1041.88,1349,1042.72Z"/><path class="cls-1" d="M1314.86,964.49c1.06,1.51,2,2.73,2.92,4.15C1316.75,967,1315.54,965.47,1314.86,964.49Z"/><path class="cls-1" d="M1067.18,1369.87l13.28-2C1081.39,1367.65,1073.66,1368.88,1067.18,1369.87Z"/><path class="cls-1" d="M379.45,1495.42l-6.9,2.38,6.48-2.23Z"/><path class="cls-1" d="M847.78,1401.87l-4,.59-3.36.52Z"/><path class="cls-1" d="M679.64,1428c3.8-.64,5.11-.91,6.56-1.18l-8.27,1.43C677.87,1428.25,678.37,1428.18,679.64,1428Z"/><path class="cls-1" d="M415.91,1484.25l-4.59,1.37Z"/><path class="cls-1" d="M968.33,1384.54l1.54-.2Z"/><path class="cls-1" d="M414.09,80.85c.14,0-.06,0,0,0C413.09,80.88,412.78,80.89,414.09,80.85Z"/><path class="cls-1" d="M250.88.8,251,3.53l.06.58Z"/><path class="cls-1" d="M1185.15,881.73l.68.16C1189.85,882.86,1187.57,882.31,1185.15,881.73Z"/><path class="cls-1" d="M184.62,708.33c-3.94,1.08-4.31,1.18-3,.81l2.94-.84,4-1c5.45-1.35,9.9-2.45-2.06.43.56-.13-.52.14-2.14.55L179,709.83C175.84,710.75,174.81,711.06,184.62,708.33Z"/><path class="cls-1" d="M383.63,1494l6.64-2.16C387.24,1492.84,385.2,1493.5,383.63,1494Z"/><path class="cls-1" d="M186.52,707.74h0c-.82.21-1.65.39-2.47.61C185.07,708.08,185.65,708,186.52,707.74Z"/><path class="cls-1" d="M826,899l3.61-.78Z"/><path class="cls-1" d="M1093.57,870.58c-2.22-.13-4.45-.2-6.67-.26C1089.54,870.39,1091.69,870.47,1093.57,870.58Z"/><path class="cls-1" d="M690.15,933l-9.48,2.56,1.45-.39C683.86,934.71,686.16,934.08,690.15,933Z"/><path class="cls-1" d="M549.39,971l2.61-.67,4.47-1.16Z"/><path class="cls-1" d="M855.55,45.23l-6.73.07C851.07,45.31,829.66,45.78,855.55,45.23Z"/><path class="cls-1" d="M379.53,1495.43l4.1-1.4-4.6,1.54C378.63,1495.71,378.55,1495.75,379.53,1495.43Z"/><path class="cls-1" d="M684.54,935,662.19,941Z"/><path class="cls-1" d="M1163.66,686.08l5.18-1.17Z"/><path class="cls-1" d="M595.87,959.11l-12.61,3.35-2.6.71Z"/><path class="cls-1" d="M848.77,45.3h0Z"/><path class="cls-1" d="M696.46,53.58c22-1.71,10.33-.87,15-1.27,26.27-2,12.16-.83,21.11-1.43,16.4-1.14,29-2,41.24-2.64.91,0,3.29-.17.5,0,8.68-.49,21.57-1.17,34.82-1.68s26.87-1,37-1.22l2.64-.05c-3.28.05-3.78,0-3.11,0,9.89-.23,18.36-.4,22.08-.38-6.06.06-6.57.09-9.41.16l10.37-.16c4.67,0,1.13,0-3.58.09l-7,.11-2.53,0-1,0c10.11-.22,21.05-.31,31.4-.35s20.12.07,27.86.23c.81,0-1,0-4,0l-10.34-.11c-6.88,0-11.58,0-1.24,0l-12-.06-12,0c9.16,0,5.52,0,1.69.05s-7.84.06.58,0c15.77-.09,24.59.05,33.39.13s17.61.28,33.33.92c7.08.26-2.34-.17,4.74.12,5.58.25,10.32.47,14.4.73s7.49.44,10.44.67c5.89.4,9.91.75,13.55,1.07s6.92.64,11.33,1.06c2.21.2,4.69.45,7.65.78s6.38.65,10.46,1.16,7.16.8,11.93,1.45c2.39.31,5.24.69,8.93,1.27l6.22,1,7.77,1.35-7.88-1.28,9.44,1.62,6.41,1.21c3.51.63,5.68,1.11,7.9,1.57s4.5.89,8.14,1.77,8.69,2,16.39,4.16c-1.36-.4-3.5-1-5.87-1.55s-5-1.3-7.26-1.81l-5.67-1.32c10.09,2.33,13.6,3.38,16.58,4.09l4.73,1.31c1.92.53,4.44,1.23,8.22,2.45L1105,70c31,9.83,62.73,27.66,90.43,50.63-1.55-1.25-6.31-5.17.16.22,4.43,3.54,8.68,7.45,13,11.34,2.16,2,4.23,4,6.36,6.08l3.2,3.08,3.09,3.2a347.54,347.54,0,0,1,23.73,27l5.54,7.09,5.28,7.24c.87,1.21,1.77,2.39,2.6,3.61l2.5,3.67c1.65,2.45,3.36,4.85,4.93,7.32,3.13,4.93,6.28,9.78,9.12,14.71s5.63,9.77,8.28,14.56l1,1.82,1,1.86,1.94,3.7c1.26,2.49,2.63,4.92,3.81,7.44,1.69,3.51,3.11,6.52,1.27,2.73,1.85,3.84,2.8,5.82,3.23,6.73s.36.76.19.36c-.38-.81-1.18-2.64.54,1.09,4,8.86,5.19,11.73,2.67,6.11a449.92,449.92,0,0,1,20.06,54.54c.75,2.6,1.51,5.2,2.26,7.79s1.37,5.22,2,7.8c1.4,5.15,2.53,10.29,3.67,15.23.6,2.47,1.06,4.92,1.54,7.31s.94,4.72,1.4,7c.78,4.55,1.52,8.83,2.19,12.74l-1.07-6.09c1.11,6.07,1.73,10.87,2.33,14.95s1,7.5,1.39,10.85c.19,1.67.39,3.33.59,5.06s.31,3.53.48,5.48.35,4,.55,6.36.27,4.87.43,7.73l-.26-4.38a378,378,0,0,1-3.39,81.42,299,299,0,0,1-8.25,37.46c-.84,2.91-1.63,5.79-2.61,8.56s-1.79,5.53-2.75,8.18-2,5.22-2.93,7.74l-.72,1.87L1315,561l-1.54,3.57c-.37.89-1,2.33-1.75,4.16s-1.9,4-3.06,6.42l-1.84,3.81-2.14,4c-1.48,2.72-3,5.57-4.65,8.27l-2.44,4.05-1.18,2c-.41.64-.84,1.26-1.25,1.88-1.65,2.45-3.19,4.76-4.54,6.77-2.86,3.91-5,6.69-5.44,7.4-4.77,6-8.12,10-11,13l-3.84,4.12c-1.24,1.21-2.44,2.36-3.7,3.58l-4.13,4-5.6,4.83c-2.11,1.93-4.78,3.89-7.9,6.3l-2.44,1.88c-.84.65-1.79,1.24-2.73,1.9l-6.19,4.23c-2.43,1.53-4.6,2.8-6.62,4l-3,1.8-3,1.62-6.55,3.49c-2.45,1.16-5.21,2.41-8.44,3.89l-.34.09c-1.45.71-3,1.28-4.45,1.87l-4.5,1.76-2.25.89-1.12.44-1.15.38-4.58,1.52-4.9,1.56c-1.64.48-3.31.87-5,1.32l-6.44,1.73c-2.16.53-4.34,1-6.51,1.49,2.59-.61,5.37-1.14,7.35-1.69s3.25-.85,2.86-.74l-3.87,1c-1.33.33-2.69.62-4.06.93l-8.37,1.88-8.37,1.65-4,.79-3.87.67c-5,.86-9.39,1.65-12.57,2.09l-5.26.78c-16.26,2.45-32.61,4.36-49,5.91l15.81-1.63c-13.1,1.35-14.3,1.47-15.22,1.53s-1.56.1-13.59,1.17c3.23-.27-1.73.19-2.28.22l-11.53.83c-4.57.33-9.75.61-15.18,1s-11.13.58-16.73.88l-16.18.69,3.89-.2c-18.3.72-37.59,1.21-57.45,1.46s-40.28.25-60.83.08c14.74.14,11.36.19-.7.1l-4.81-.11c-7.79,0,12.58.13-3.39,0-15.35-.2-10.32-.2-1.51-.1l-18.66-.24c-1.1,0,3.28,0,4.42,0-7.66,0-32.21-.63-43.26-.84l-1.05,0c-41.08-1-59.7-1.67-93.15-2.84-.66,0-13.74-.45-23.71-.79l-81.47-3.2c-20.81-.78-6.08-.19-15.44-.52-1.52-.11-31.1-1.22-15.76-.68-35.55-1.28-45.4-1.7-90.37-3,4.88.15,10.37.33,7.52.26-8.16-.23-18.56-.52-17.39-.52l2.15.05c-25.24-.63-54.37-1.26-82.22-1.42s-54.43.06-74.52.71l2.25-.06c-13.89.44-27.79.93-41.67,1.78l-6.5.37,1-.07,2.32-.15c3.5-.2,7.61-.45.52-.07-22.45,1.36-40.15,3-56.8,5.12a432,432,0,0,0-50.26,9.05c-3.51.76-7.62,2-12.27,3.27-4.6,1.44-9.73,3-15.08,5.14A159.36,159.36,0,0,0,143.89,723a155.12,155.12,0,0,0-32.63,22.6A154.6,154.6,0,0,0,86.5,774.26l-2.29,3.58-1.12,1.74-1,1.75-2,3.38L78.33,788l1.08-2a157.53,157.53,0,0,0-8.27,17.65l.75-1.9,1.2-2.75c.73-1.66,1.09-2.49-.14.37a161.85,161.85,0,0,0-13,62.77,156.23,156.23,0,0,0,13.29,63.9,145.45,145.45,0,0,0,7.58,14.68c1.36,2.4,2.9,4.69,4.39,7,.75,1.16,1.58,2.26,2.37,3.39s1.57,2.27,2.44,3.34a141.64,141.64,0,0,0,22.86,23.82c1.07.86,2.12,1.76,3.21,2.6l3.31,2.47,1.65,1.24,1.71,1.16,3.41,2.32c1.15.75,2.33,1.44,3.5,2.17s2.32,1.48,3.53,2.12c2.41,1.31,4.77,2.72,7.25,3.9A168.71,168.71,0,0,0,171,1008.09c1.91.55,3.68.95,5.28,1.37s3.07.78,4.42,1c2.69.55,4.87,1,6.74,1.37l4.88.78c1.43.24,2.74.45,4.12.59,2.76.31,5.76.77,10.59,1.17l8.77.82,12.67.9-11.35-.71a646.32,646.32,0,0,0,97.39-.25,949.09,949.09,0,0,0,95.6-12.48l-9.82,1.75,13.06-2.27c5.13-1,10.76-2,16-3l13.55-2.71,5.79-1.24c9.57-2,2.23-.42,8.13-1.64,13-2.75,32.57-7.33,39.45-8.94,1.17-.26-3.63.87-6,1.44,8.45-1.91,39.24-9.52,31.17-7.58,22.87-5.67,43.66-11.2,61.82-16,11.82-3.21,38.94-10.49,42.67-11.61-1.6.54,39.85-10.83,54.23-14.75-4.81,1.32,12.5-3.35,6.88-1.8,16.4-4.44,31.46-8.43,28.59-7.71,30.28-8,60.94-15.76,78.13-19.66,49.11-11.71,95-20.84,140-27.21-.4.08-3.7.57-8.41,1.25s-10.78,1.68-16.76,2.61l-16.07,2.71c-4.23.77-6.86,1.26-6.37,1.2,21.2-3.82,38-6.42,54.77-8.72s33.57-4.2,54.87-5.9c11-.89-6.26.55-10,.89a799.33,799.33,0,0,1,121.37-2.11c-.05,0-1.11-.08-2.64-.15l-5.49-.26c7.55.29,17.52,1.17,16.67,1l-7.34-.53c-6-.47,1.47,0,10.62.69s19.93,1.81,20.59,1.93c-6.36-.7,3,.43,11.48,1.46,8.42,1.24,15.9,2.44,5.83,1l7.24,1.08c2,.28,3.26.57,2.7.43,7.23,1.43,9.53,1.89,2.19.48l8.39,1.64,1.67.33,1.51.36,2.62.63,7.2,1.72c1,.22,1.94.48,3,.79l3.66,1.06c2.85.84,6.72,1.83,12.48,3.89l-.82-.26-1.89-.64c-1.48-.5-3.25-1.1-4.48-1.41,1.5.39,3,.92,4.44,1.42l4.52,1.52c1.53.53,3.1,1,4.7,1.61l4.89,1.92,5.26,2.07c1.81.74,3.65,1.63,5.6,2.49s4,1.78,6.11,2.79l6.56,3.39c-1.11-.56,1,.55-4.47-2.27a212.76,212.76,0,0,1,40.61,26.27l2.27,1.85c.75.62,1.46,1.3,2.2,1.95l4.4,4c1.52,1.3,2.89,2.78,4.34,4.22l4.37,4.4,4.26,4.76,2.18,2.44c.72.84,1.39,1.72,2.1,2.59l4.3,5.35,4.19,5.79c-3.4-4.63-1.46-1.94,1.47,2.12,2.74,4.19,6.41,9.81,6.8,10.77l2.64,4.53c.43.76.89,1.5,1.3,2.28l1.2,2.32c1.6,3.11,3.27,6.18,4.67,9.38-.59-1.27-1.14-2.56-1.76-3.82l-1.92-3.74a214,214,0,0,1,17.66,47c-.58-2.2-1.13-4.41-1.73-6.6l-2-6.52c.81,2.75,1.72,5.47,2.45,8.24l2.14,8.33,1.8,8.41c.58,2.81,1,5.65,1.51,8.47q-1.53-9.62-3.84-19.09c.62,2.24.93,3.93,1.21,5.16s.45,2,.56,2.55a8.52,8.52,0,0,0,.27,1.09c0,.11.1.41.48,2.17s.9,5,1.91,11c-.34-2.46.27,2.09,1.1,8.45.36,3.19.65,6.84,1,10.28s.37,6.7.5,9.09v-.06a283.35,283.35,0,0,1-.41,32c-.3,3.51.14-2.84-.05-.55s-.46,6-.89,10.64c-.27,2.3-.57,4.8-.87,7.42-.14,1.31-.33,2.64-.55,4s-.41,2.71-.61,4.08c-1.7,10.92-4.11,22-5.55,27.51.92-3.67.93-3.87.61-2.67l-1.79,7.31c-2.31,8.19-2.7,9.37-2.34,8-.85,3.08-1.62,5.22-2.08,6.74s-.76,2.37-.9,2.8c-.27.88,0,0,.23-.63s.42-1.21,0,.22c-.25.72-.59,2-1.28,3.86s-1.63,4.55-2.92,8.12c.8-2.24.42-1.17,2.08-5.85-10.23,28.73-23.63,54.2-40.59,76.53-1.27,1.63-1,1.23.09-.18l2.07-2.72c.78-1.1,1.64-2.33,2.51-3.55l2.47-3.5c.76-1.08,1.35-2,1.8-2.72.87-1.35,1-1.58-.29.39a256.41,256.41,0,0,1-18.57,24.45,207.81,207.81,0,0,1-22.06,22,178,178,0,0,1-25.07,18,144.91,144.91,0,0,1-27.2,12.51l3.44-1.21c1.14-.4,2.29-.8,3.4-1.3a137.37,137.37,0,0,1-18.11,5.91c-8.81,2.21-19.43,4.56-29.11,6.57,4.74-1,6.2-1.36,4.92-1.07-26.22,5.49-53.78,10.4-93.87,16.8l5-.81c-15.59,2.48-41.09,6.37-58,8.85-5,.78-14.66,2.19-8.79,1.37l-145.49,20.92c5.52-.8,13.16-1.93,8.76-1.29L845.17,1402l13.43-1.9-25.82,3.83c17.68-2.63-.17-.06-7.81,1,1.29-.18-1.33.23-.68.14-20.55,3-3.43.59-31.48,4.74l1.48-.25-31.45,4.84c-4.7.67,11.15-1.74,11.87-1.89l-45.7,7.17,23.18-3.68c-15.66,2.38-17.47,2.7-29.09,4.54l1.14-.18-26.86,4.33,6.84-1.11c-19.82,3.39-40.4,6.72-67.06,11.54,25.92-4.66,4.28-.81,6.25-1.22-6.81,1.18-17.17,3-14.22,2.48-12.59,2.33-21,3.77-38.78,7.22-.8.12-13.45,2.59-10.62,2-16.34,3.2,3.87-.72,2.5-.43-25.18,5-59.18,11.69-95.09,20.26-15.49,3.68-24.62,6-33.47,8.32s-17.41,4.58-31.61,8.64c-4.79,1.36-2.83.78.32-.14l7.52-2.14c-15.5,4.3-27.1,7.75-41.51,12.42,2.92-1-.11,0-4.5,1.42-5.77,1.91-7.68,2.6-10.06,3.43s-5.22,1.82-12.75,4.56c2.57-1,5.88-2.21,11.41-4.17-13.53,4.74-26.76,9.79-40.36,15.75-3.63,1.53,8.19-3.63,13.05-5.56-7.74,3.1-17.66,7.4-26.08,11.5s-15.34,8-17.57,9.25l4.68-2.6,4.73-2.5c-5.36,2.87-2.8,1.4,1.18-.66,12.74-6.5,18.66-8.78,19.38-9.14-3.23,1.41-6.42,2.89-9.62,4.39,4.93-2.27,14.6-6.66,25.68-11s23.5-8.9,33.59-12.25c-2.8,1-5.58,2-8.36,2.94,6.86-2.42,13.76-4.7,20.68-6.94,4.44-1.36,7.47-2.29-2.54.9,7.27-2.3,10.5-3.29,13.47-4.2s5.69-1.73,12-3.55c1.39-.39.76-.21-.53.16,4.77-1.38,9.55-2.76,14.33-4.09-2.81.8,2.4-.61-6.42,1.84,25.76-7.19,41.67-11.12,51.45-13.47l-2.17.53,16.19-3.9a23.12,23.12,0,0,0,2.46-.61c-.26,0-1.65.32,11.91-2.82q9.13-2,18.31-3.91l3.55-.84c3.75-.81,11.15-2.37,9.79-2.06,13.93-3-2.39.47,5.7-1.26,9-1.87,21.46-4.41,32.18-6.51s19.68-3.81,21.73-4.15c6.48-1.28-17.32,3.26,2-.45,5.53-1,22.34-4.21,38.92-7.11-5.08,1-20.77,3.77-4.19.82,10-1.89,32.28-5.67,46.28-8,.16,0,2.14-.39,5.39-.94l13-2.17,35.56-5.77,24.33-3.78,41.89-6.37-.65.11c4.23-.72,26.85-4.08,43.31-6.5-.64.14-3.6.59-12.51,1.92l15.48-2.27,18.52-2.74-3.89.62,68-9.83c1.49-.26-21.11,2.88,6.93-1.17,1-.12,2.09-.22-5.25.84l13.42-1.93-11.2,1.65,16-2.32c-.19.07,7.15-1,5.77-.77l-12.12,1.74,28.41-4c-1,.11,0,0,8-1.21,20.61-3,7.06-1,19.09-2.69l11-1.61c4-.59,7.32-1.09,7.49-1.14l9.48-1.35c10.67-1.56,49.79-7.51,37.77-5.75l-2.74.42,1.75-.27h0c34.9-5.43,72.51-11.34,106.89-18.26l0,0c10.25-2.07,21.64-4.52,32.21-7.15,2.66-.62,5.22-1.41,7.72-2.12,1.24-.38,2.49-.68,3.68-1.11l3.49-1.23,3.34-1.19c1.08-.4,2.09-.87,3.1-1.29,2-.86,3.89-1.61,5.58-2.4l4.36-2.13c1.46-.71,2.86-1.36,4-2,2.23-1.23,3.5-1.92,2.35-1.27,1.73-1,3.32-1.8,4.69-2.69l3.79-2.4c2.38-1.44,4.36-2.88,6.54-4.42,1.09-.77,2.24-1.55,3.46-2.46l3.93-3.06,2.3-1.79c.8-.63,1.6-1.36,2.48-2.09l2.77-2.37c1-.84,2-1.72,3.06-2.72-1.44,1.4-2.56,2.28-3.3,2.94l-1.39,1.21.19-.16-.65.56-2.46,2.11c-1.2,1-2.85,2.23-5,3.93a196.16,196.16,0,0,0,17.66-15.25c1.17-1.15,2.31-2.35,3.52-3.58s2.51-2.5,3.8-4l4.25-4.73c.78-.85,1.55-1.77,2.35-2.76l2.54-3.07c-1.2,1.47-1.18,1.45-.36.48s2.45-2.87,4.27-5.31,4.08-5.25,6-8.11l2.88-4.07c.89-1.29,1.66-2.51,2.34-3.54l-2,3-2.11,3c-1.43,2-2.77,4-4.27,5.91a279.34,279.34,0,0,0,16.84-25.66c-.85,1.57-1.79,3.08-2.68,4.62a266,266,0,0,0,14.3-26.87c.51-1.1,1-2.18,1.52-3.28s1-2.2,1.42-3.29c.93-2.18,1.91-4.32,2.76-6.48,1.7-4.33,3.4-8.56,4.85-12.8a318,318,0,0,0,13.14-49c1-5.54-.06.14-1.15,6-1.28,5.79-2.59,11.72-1.54,6.8,2.26-9.52,3.83-19.4,5-27.63.25-2.06.49-4,.71-5.84s.44-3.52.55-5c.27-3.07.48-5.49.61-7,.42-6.69.67-11.6.67-15.64,0-2,.06-3.82.08-5.52s-.08-3.29-.12-4.89-.07-3.22-.11-4.95-.21-3.59-.33-5.69-.22-4.43-.51-7.1c-.12-1.34-.26-2.77-.4-4.3s-.27-3.16-.53-4.89c.25,1.78.37,3.52.23,2.2-.09-.66-.29-2.08-.63-4.63-.18-1.27-.39-2.83-.64-4.72s-.7-4.09-1.13-6.67c-1.71-9.64-3.19-15.48-3.69-17.44-.24-1-.23-1,0,0l.58,2.22c.13.49.28,1.05.44,1.67s.29,1.32.45,2.08c1,4.59,1.36,6.42,1.4,6.61,1.17,6.22,2.52,14.42,1.25,6.77l-.45-2.5c-.22-1.2-.41-2.67-.77-4.29s-.73-3.4-1.12-5.26c-.72-3.73-1.86-7.65-2.71-11.13-.42-1.74-.93-3.33-1.34-4.71l-1-3.4c-.51-1.72-.65-2.19-.18-.68-.27-.89-.52-1.68-.74-2.4l-.66-1.88-.86-2.42c-.37-1-.37-1-.11-.26s.81,2.31,1.5,4.3,1.37,4.49,2.17,7.11c-.46-1.5-.9-3-1.33-4.39s-.85-2.82-1.34-4.16c-1-2.68-1.85-5.24-2.72-7.72s-1.94-4.8-2.88-7.13l-.7-1.74-.77-1.7c-.52-1.13-1-2.25-1.55-3.38a198.35,198.35,0,0,0-16.06-28.6c2.23,3.45,4.26,6.65,2,3.21-.65-1-1.26-1.94-1.84-2.84-.3-.45-.58-.89-.86-1.32s-.59-.81-.87-1.21l-3-4.22c-1.78-2.55-3.31-4.38-4.48-5.84-2.37-2.9-3.4-4.27-4.3-5.24l-3-3.32-3-3.34c-1.36-1.41-3.12-3.15-5.38-5.44-2.53-2.63-3.72-3.56-4.13-4s-.21-.21-.24-.25l-1.82-1.66c-.74-.67-1.78-1.62-3.24-2.93s-3.47-2.84-6-4.89c-3-2.55-4.86-3.73-5.61-4.33s-.54-.41.24.15,2.15,1.49,3.56,2.62l4.14,3.35c-4.5-3.81-9.19-7.07-13.58-10.29-4.58-2.94-8.84-5.92-13.12-8.28-2.11-1.21-4.13-2.44-6.12-3.53l-5.82-3c-3.68-2-7.19-3.48-10.25-4.88l5.66,2.55c1.89.86,3.7,1.87,5.55,2.79l-4.75-2.43L1233,898c-3-1.3-5.7-2.68-8.61-3.75,2.21.84,4.35,1.85,6.5,2.84-1.67-.73-3.24-1.52-4.73-2.1l-4-1.58-2.67-1.06-.93-.38c-3.5-1.36-2.17-.82-1.7-.61s.12,0-7-2.36l-3.85-1.32-2.17-.74-2.32-.67-9.69-2.8c-6.42-1.54-12.05-3-13.7-3.31,14.88,3.52,14,3.36,12.66,3-.69-.18-1.52-.39-.62-.18s3.55.93,9.76,2.73l-8-2.31L1182.2,881l3,.7c-7.09-1.84-11.54-2.51-14.58-3.15s-4.73-1-6.46-1.17l-6.7-1c-1.6-.23-3.56-.55-6.06-.89l-9.32-1.12c3.83.43-7-.95-11.89-1.33,12.16,1.17,5.81.62-5.35-.43l-3.42-.33-3.06-.23-5.14-.38-7.44-.53-12.16-.6,11.6.61c-3.94-.14-13.63-.78-27.18-1.07-1.15-.06,12.3.34,7.47.19-3.76-.08-7.76-.25-12-.3l-13.27-.13-14.38.13c-5,.12-10.07.3-15.31.46-9.71.41-.94,0-9.47.36-2.93.16-5.53.26-7.88.42l-6.37.42c-3.86.27-7.08.42-10.33.71l-10.54.87c-4,.32-8.73.85-14.88,1.45,3.54-.33,5.63-.53,4.66-.42s-5,.44-13.63,1.49c6.72-.82,13.46-1.43,20.2-2.12,3.36-.33,6.74-.58,10.11-.88s6.74-.59,10.12-.79c-4.33.27-8.66.71-13,1.06l-6.49.57-6.48.66c12.19-1.26,25.76-2.27,33.09-2.71-12.39.86-11.11.76-5.26.41-16.73,1.11-33.13,2.75-52.38,5l.58-.19c-7.23.95-14.06,1.75-20.8,2.77l-10.1,1.47-10.24,1.62c-13.85,2.26-28.75,4.82-47.32,8.46l12-2.28-14.84,2.88c-6.6,1.36-14.1,2.81-20.08,4.13,1.1-.27-6.39,1.29-11.51,2.37l-13.7,3.06c-7.25,1.67-15,3.45-16.65,3.89l-16.45,3.86c-14.84,3.6-23.29,5.76-31.59,7.9l-30.65,8c8.55-2.29-4.37,1.06,14.66-3.93l-12.59,3.28-4,1.07c-1,.26-1.53.41-1.56.43-5.55,1.41-26.26,7.05-35,9.37l-15.9,4.38c-1.16.31,0,0,0,0l-7.16,2c-3,.83-4.82,1.34-.17.09l-54.84,14.9C584.2,961.9,564.74,967.06,552,970.3c-20.71,5.41-45.72,11.65-64.65,16,1.21-.29.06,0,3.63-.87l-21.53,5c-4.48,1-9.38,2.17-24.32,5.23-15.26,3.1,15.85-3.33,6.34-1.38l-22.11,4.43c-5.52,1.07-11.54,2.19-17.45,3.28s-11.7,2.08-16.77,2.86c1.63-.27,3.27-.52,4.9-.82-15.47,2.54-37.78,6.18-63.28,8.74,0,0,1.24-.14.15,0-4.36.45-9.69,1-15.63,1.5-3,.24-6.09.54-9.31.76l-9.94.65c-3.39.25-6.83.34-10.28.52s-6.92.33-10.34.39l-10.11.24-9.6,0c7.67-.07,11.2,0,6.52-.09-5.53,0-4.72,0-5.28.06s-2.51.16-13.54-.1c-1.79-.06-4.13-.07-6.66-.18l-7.82-.37c-5.14-.19-9.63-.59-10.68-.67l5.19.35c1.73.11,3.46.16,5.19.24,3.47.14,6.93.33,10.4.43-10.65-.44-26.91-1.19-37.81-2.44l1.4.1-5.6-.52-4.94-.62c-3.11-.34-5.83-.84-8.33-1.25s-4.74-.85-6.88-1.3l-3.15-.65c-1-.21-2-.49-3.05-.74-4.07-1-8.18-2.12-13.28-3.76-2.52-.89-5.35-1.75-8.45-3-1.55-.63-3.23-1.21-5-2l-5.52-2.46,3.22,1.47-3-1.32-2.53-1.24c-1.56-.78-2.91-1.42-4.07-2l-5.73-3.2L126.79,988c-2.16-1.51-5-3.25-8.69-6.09-.75-.58-1.5-1.14-2.23-1.73l-2.16-1.82A144.77,144.77,0,0,1,93.2,957.91a157.2,157.2,0,0,1-10.73-15.12,160,160,0,0,1-8.4-15.72A145.23,145.23,0,0,0,87,949.54a143.25,143.25,0,0,0,18.58,21.61l-3.79-3.72-4.39-4.73c-1.47-1.75-3.07-3.53-4.58-5.44s-3.05-3.82-4.41-5.82A153.49,153.49,0,0,1,77,932.9c1.18,2.17,2.42,4.66,3.88,7,.72,1.19,1.39,2.41,2.12,3.54s1.43,2.22,2.09,3.24a141.72,141.72,0,0,1-12.39-22.89,148.57,148.57,0,0,1-5.45-14.7,168.29,168.29,0,0,1-4.2-16.9c.25,1-.43-2.32-1.25-8.3A158,158,0,0,1,60.42,860a164,164,0,0,1,2.93-27.93A158.24,158.24,0,0,1,90.83,768.9c1.68-2.16,3.27-4.4,5.07-6.49l2.65-3.19,2.8-3.09,1.4-1.56,1.47-1.49,3-3,3.09-2.9,1.56-1.45c.52-.47,1.07-.93,1.61-1.4l3.25-2.79c1.11-.9,2.26-1.78,3.39-2.67,2.23-1.83,4.65-3.45,7-5.18a159.47,159.47,0,0,1,15.25-9.28c2.64-1.49,5.41-2.77,8.18-4.12,1.38-.69,2.82-1.25,4.24-1.89s2.84-1.29,4.32-1.81c-4.14,1.64-5.32,2.22-4.88,2l1.76-.77c.9-.39,2.05-.91,3.35-1.38,2.58-1,5.57-2.16,7.78-2.9s3.59-1.2,2.85-1c5.54-1.9,9.48-2.87,12.08-3.63s4-1,4.46-1.17c11.47-2.93,23.12-5.07,34.81-6.9,4.16-.64,1.41-.2-2.25.38s-8.19,1.45-7.66,1.34l4.28-.77,3.46-.55,4.85-.76c2.45-.37,3.51-.54,4.31-.64l10.52-1.36c-1.72.22.48-.13,4.94-.63l8.17-.94,10.29-1-10.25,1L241.71,698l11.61-1.33,8.8-.85c5.12-.52,9-.74,12.88-1.07s7.77-.55,12.94-.9,11.64-.7,20.66-1.19l-11.41.65c9.25-.58,26.34-1.34,43.39-1.8s34.06-.61,43.15-.74c3.28,0,7.62,0-.55.06,44.33-.28,98.66.88,133.09,2l-3.36-.07c8.27.24,14.39.38,24.74.75-.54,0-3.33-.08.5.05,4.37.12,22,.68,32.9,1.1l-9.36-.3,102.54,3.8.37,0,1.09,0,4.06.19,13.51.56,31.84,1.24h-.6c50.32,1.85,85.48,2.89,132.09,3.8,14.47.33,39,.73,65.68.79s55.62-.3,78.86-1c-7.1.21,1.16-.11,9.42-.38,5.46-.18,13-.52,19-.78s10.34-.53,9.47-.44l-3.88.19c8.22-.26,30.62-1.63,48.07-3.16l2.87-.35c22.82-1.91,52.68-5.42,79.58-10.77,6.74-1.27,13.26-2.79,19.48-4.2l9-2.41,2.16-.58c.71-.21,1.41-.45,2.1-.67l4.07-1.34c5.37-1.61,10.1-3.64,14.32-5.24l1.55-.61,1.46-.66,2.76-1.25,4.78-2.16c1.28-.54,2.51-1.27,3.8-1.93L1225,665c1.32-.73,2.71-1.37,4-2.19s2.63-1.6,4-2.39l4-2.4c1.3-.8,2.53-1.71,3.77-2.54l3.65-2.51,1.77-1.21c.58-.41,1.11-.85,1.66-1.27l-.44.41a185,185,0,0,0,29-26.37c.52-.57,1.06-1.13,1.57-1.72l1.51-1.82,3.1-3.73c2.16-2.47,4.11-5.29,6.3-8.18s4.26-6.11,6.57-9.5c1.18-1.68,2.26-3.51,3.39-5.4l3.52-5.88-3.94,6.65c1.37-2.29,2.62-4.37,3.78-6.29l2.93-5.47c.9-1.7,1.78-3.27,2.53-4.81l2.14-4.52,2.1-4.46c.66-1.53,1.32-3.11,2-4.78l2.27-5.36c.73-1.95,1.53-4,2.39-6.35.71-1.85,1.51-3.66,2.12-5.54A307.45,307.45,0,0,0,1333.87,493a367.72,367.72,0,0,0,3.79-55.58c0,.6,0,1.7,0,7.74,0-2.2,0-4.9,0-7.95,0-1.52,0-3.12-.06-4.79s-.09-3.4-.14-5.17-.06-3.59-.17-5.41-.2-3.68-.31-5.52-.2-3.69-.31-5.51-.3-3.6-.45-5.34c-1.14-13.94-2.83-24.8-2.43-21.64,0-.06-.08-.69-.23-1.8s-.38-2.7-.66-4.65c-.14-1-.29-2-.46-3.19s-.4-2.35-.62-3.64l-1.44-8.36c-2.24-11.87-5.55-26-8.21-35.74l.84,3c-1-4.12-2-7.2-2.77-9.9s-1.44-5-2.23-7.5-1.66-5.18-2.77-8.66c-.54-1.74-1.2-3.67-2-5.85l-2.61-7.44c-.94-2.65-1.41-3.79-1.24-3.42s.91,2.27,2.11,5.81c-1.49-4.45-2.75-7.45-3.65-9.89s-1.61-4.26-2.39-6.18-1.64-3.94-2.83-6.81c-.6-1.42-1.25-3.08-2.1-5l-3-6.72,3.48,7.72c-2-4.4-3.4-7.61-4.51-10.11s-2-4.23-2.72-5.75l-2.07-4.25c-.72-1.49-1.54-3.2-2.78-5.54-1.42-2.68-3.12-6.08-5-9.63s-4-7.29-6-10.76-3.92-6.62-5.39-9.1-2.62-4.19-3-4.8c-.73-1.08-2.47-3.87-4.89-7.53-1.24-1.8-2.63-3.84-4.11-6-.75-1.08-1.51-2.2-2.29-3.34l-2.47-3.41c-.9-1.24,1.57,2.08,2.77,3.78-9.28-13.18-17-22.41-23.92-30.56-1.8-2-3.54-3.92-5.25-5.83l-2.57-2.85-2.65-2.75-5.35-5.56c-1.85-1.84-3.79-3.68-5.77-5.61-.32-.34-1.36-1.35-2.68-2.63q3.46,3.33,6.72,6.49c1.1,1,2.13,2.09,3.12,3.14l2.94,3.05c3.87,3.91,7.09,7.63,9.81,10.64s4.73,5.51,6.07,7.07l1.61,1.92-.54-.66-1.35-1.64-3.39-4.09c-1-1.17-1.72-1.95-1.46-1.68s1.49,1.58,4.12,4.75c-2.61-3.23-6-6.8-9.5-10.76-1.75-2-3.74-3.93-5.68-6s-3.94-4.16-6.08-6.15l-6.35-6.12c-2.15-2-4.37-3.92-6.5-5.86l-3.19-2.85-3.2-2.66-6.09-5.06c-.76-.62-1.52-1.18-2.1-1.64l1.66,1.26c-3.7-2.82-7-5.38-10.15-7.71-5.28-3.67-8.53-6.17-13.78-9.43L1163,96.71l-1.68-1.08-1.92-1.13L1155.17,92l-4.6-2.67-4.73-2.49c-3.09-1.62-6-3.2-8.32-4.25.75.42-11.46-5.35,0,.09-1.49-.68,1.82.72,7.85,4l3.9,2-.63-.32c6,3.22,13.57,7.71,22,13.23l-5.25-3.34c-1.8-1.12-3.59-2.38-5.59-3.49l-6.23-3.63c-1.09-.63-2.19-1.33-3.38-2l-3.67-1.94c-2.35-1.21-4.8-2.52-7.07-3.64l-5.85-2.71a212.32,212.32,0,0,0-24.44-10l-3.14-1.1-3-1-5.29-1.68-6.4-1.87A462.8,462.8,0,0,0,1041,54.68c-16.88-2.66-32.42-4.33-42.27-5.25-8.92-.83-10.25-1-13.58-1.25,5.16.38,11.27,1,14.06,1.23-8.91-.88-22.13-1.93-33.66-2.62l-8.24-.48-7-.32c-4.17-.21-7.17-.31-8.23-.32-11.28-.45-8.11-.34-6-.28s3.17,0-12.32-.38l4.18.1c-30.48-.9-55.27-.67-80.88-.09s-52,1.69-85.77,3.59l8-.43c-77,4.22-158.35,12.36-234,20.54-21.49,2.33-23.81,2.64-36.92,4.12l-4.66.46-22.42,2.52-22.65,2.41c-3.64.39-7.26.71-10.89,1s-7.28.54-11,.75c-7.44.43-15.17.53-23.55.48s-17.43-.56-27.5-1.56l5.19.5A270.15,270.15,0,0,1,353,75.67l-3.35-.62-3.07-.66-5-1.1c-2.76-.69-4.22-1.08-3.63-.94l-3.55-.88c-1.66-.41-3.8-1.08-6.53-1.87l-.42-.16a179.9,179.9,0,0,1-33-13.43c-1.55-.77-2.81-1.58-3.94-2.22l-2.86-1.67-3.17-2.07a13.24,13.24,0,0,1-1.35-.93c-.21-.13-.75-.5-3.25-2.35l-2.28-1.66-3.06-2.49c-1.2-.92-2.46-2.13-3.93-3.47s-3-3-4.76-4.77c-.66-.66-1.26-1.46-1.93-2.23s-1.37-1.58-2-2.45A63.1,63.1,0,0,1,258,24.1,56.21,56.21,0,0,1,254.8,18c-.44-1-.81-2.08-1.2-3.09-.19-.51-.41-1-.56-1.5l-.4-1.49c-.26-1-.55-1.9-.75-2.8l-.42-2.56a26.93,26.93,0,0,1-.39-4c-.13-2-.15-2.71-.1-1.3a42.14,42.14,0,0,0,1.39,9.93l.57,2.14c.19.65.44,1.22.61,1.71l.63,1.71L253,13.61l-.91-3.31-.22-.83c-.06-.28-.1-.56-.15-.84l-.27-1.7-.28-1.69c-.06-.57-.07-1.14-.11-1.71L250.82,1c0-.82,0-1.32-.07-.68a17,17,0,0,0,0,1.9L250.87,4l0,1.13.2,1.3.51,3.13,1,3.86c.44,1.4,1.07,2.9,1.68,4.58l1.22,2.51A24.23,24.23,0,0,0,257,23.17a73.15,73.15,0,0,0,15.13,17.94c.9.88,1.92,1.63,2.89,2.45s1.93,1.64,2.95,2.37a89.75,89.75,0,0,1-14.44-13.52L264.84,34c.43.52.91,1,1.35,1.44l2.56,2.68,2.54,2.32c.82.74,1.59,1.49,2.43,2.13a112.36,112.36,0,0,0,9.58,7.12l3.25,2.14c1.37.92,3.13,1.87,5.14,3.06a169.87,169.87,0,0,0,20.92,9.76c1.3.5-1.14-.37-2.06-.77s-.43,0,6.84,2.65c10.24,3.5-9.8-3.4,7.17,2.32,2.67.89,4.52,1.36,5.93,1.81s2.43.74,3.51,1l3.9,1,3,.75c1.17.28,2.53.55,4.14.9.91.21.68.17-.42-.06s-3.07-.61-5.6-1.28l2.22.56,2.38.51,5.07,1.11c1.75.36,3.54.66,5.32,1s3.57.68,5.32.92c7,1.13,13.3,1.8,16.31,2.12,5.84.57,15.73,1.42,24,1.52,4.16.17,7.91.08,10.55.1s4.17,0,3.89,0l5-.16,3.77-.13,4.34-.26c6.06-.3,13-1,18.35-1.48-4.9.51-4.85.48-2.07.26l14.16-1.46c11.85-1.25,25.49-2.75,22.9-2.41,14.5-1.68,52.38-5.85,78.07-8.64l-6.53.72,28-2.91c1.85-.28,24.38-2.61,36.53-3.84,17.74-1.65-10.77,1.15-5.19.68-.9,0,30.82-3,24.78-2.51,13.58-1.22,11.7-1.06,18.7-1.64,2.37-.31,12.64-1.15,23.91-2.16l26.67-2.08c5.14-.38,2.9-.19-.61.09Zm499,67h0l-4.69-3.87-3.62-2.77,3.29,2.52C1191.78,117.54,1193.38,118.92,1195.45,120.62Zm31.46,29.7c-3.68-3.78-8.11-8.62-13.19-13.37-1.07-1.07.12.06,3.25,3.08-.42-.4-.29-.27.23.24s1.43,1.38,2.48,2.5ZM1156.15,92.6c6,3.4,7.83,4.75,8.63,5.25C1163.4,97,1162,96,1160.25,95l-5.75-3.35-.7-.4Z"/><path class="cls-1" d="M1145.33,86.68l-2.5-1.32,3.61,1.92,2.16,1.12Z"/><path class="cls-1" d="M1061.11,1370.79l.9-.13-1.89.28Z"/><polygon class="cls-1" points="1209.65 671.96 1209.71 671.95 1213.14 670.37 1209.65 671.96"/><path class="cls-1" d="M825,1405l-3.1.44Z"/><path class="cls-1" d="M723.1,1420.57l-14.4,2.3Z"/><path class="cls-1" d="M644.94,1433.64l-1.53.29.16,0Z"/><path class="cls-1" d="M1099,871.24l-3-.16C1088.79,870.73,1093.66,871,1099,871.24Z"/><path class="cls-1" d="M1354.56,1087.34c-.12-2-.23-4-.35-5.95-.06-1-.1-2-.19-3s-.19-2-.29-3.06c.36,3.32.48,6.28.6,8.43S1354.54,1087.24,1354.56,1087.34Z"/><path class="cls-1" d="M687,934.32l0,0-2.5.68Z"/><path class="cls-1" d="M1351.66,1058c.51,3.3.85,6.34,1.24,9.19.21,1.42.34,2.81.46,4.16s.25,2.66.37,4C1353.31,1069.86,1352.47,1063.47,1351.66,1058Z"/><path class="cls-1" d="M314,1522l-3.4,1.73-.4.22C311.46,1523.25,312.74,1522.63,314,1522Z"/><path class="cls-1" d="M310.21,1523.93l-3.75,2Z"/><path class="cls-1" d="M298.7,1530.33c2.55-1.54,5.16-3,7.76-4.41C303.75,1527.41,300.42,1529.27,298.7,1530.33Z"/><path class="cls-1" d="M412.12,1485.16l1.15-.36C412.64,1485,412.24,1485.11,412.12,1485.16Z"/><path class="cls-1" d="M442.82,1476.54c-7.35,2-18.43,5-28.6,8l-1,.3c2.39-.73,8-2.35,13.94-4S439.33,1477.48,442.82,1476.54Z"/><path class="cls-1" d="M572.61,1447.33q-13.11,2.58-26.19,5.27c4.58-.92,10.6-2.13-1.3.33,16.5-3.37,14.8-3,13.26-2.71S555.44,1450.73,572.61,1447.33Z"/><path class="cls-1" d="M654.06,1432.32c-14.13,2.49.17,0-.57.15C662.45,1430.9,664.62,1430.52,654.06,1432.32Z"/><path class="cls-1" d="M1242,1327.82l-1.2.81C1250.14,1322.72,1240.86,1328.56,1242,1327.82Z"/><path class="cls-1" d="M1317.83,1243.88c-1.77,3.12-3.46,6.29-5.37,9.32l-2.61,4.41,4.1-6.8C1315.27,1248.52,1316.54,1246.19,1317.83,1243.88Z"/><path class="cls-1" d="M1343.52,1181.51l-1.33,4.65c.84-3,1.72-5.92,2.52-8.89l2.26-9-1.67,6.61-.84,3.3Z"/><path class="cls-1" d="M574.46,964.34l3.25-.8C584.93,961.6,586.43,961.13,574.46,964.34Z"/><path class="cls-1" d="M148,999.36c-1.06-.51-2.6-1.12-4.31-2s-3.7-1.83-5.73-2.9-4.09-2.24-6-3.39l-5.38-3.32c2.06,1.3,4.14,2.57,6.15,3.8l5.93,3.29,5.26,2.63C145.47,998.26,146.9,998.84,148,999.36Z"/><path class="cls-1" d="M1097.7,696.85c-2.89.36-5.78.62-8.68.93,2.73-.29,5.46-.54,8.18-.86l8.17-1Z"/></g></g></g></svg>